<svg class="railroad-diagram" xmlns="http://www.w3.org/2000/svg" width="353" height="110" viewBox="0 0 353 110">
<style>
    svg.railroad-diagram {
        background-color: hsl(30,20%,95%);
    }
    svg.railroad-diagram path {
        stroke-width: 3;
        stroke: black;
        fill: rgba(0,0,0,0);
    }
    svg.railroad-diagram text {
        font: bold 14px monospace;
        text-anchor: middle;
    }
    svg.railroad-diagram text.label {
        text-anchor: start;
    }
    svg.railroad-diagram text.comment {
        font: italic 12px monospace;
    }
    svg.railroad-diagram rect {
        stroke-width: 3;
        stroke: black;
        fill: hsl(120,100%,90%);
    }
</style>
<g transform="translate(.5 .5)">
<path d="M 20 31 v 20 m 10 -20 v 20 m -10 -10 h 20.5"></path>
<g>
<path d="M40 41h0"></path>
<path d="M312 41h0"></path>
<path d="M40 41h10"></path>
<g>
<path d="M50 41h0"></path>
<path d="M102 41h0"></path>
<rect x="50" y="30" width="52" height="22"></rect>
<text x="76" y="45">Mult</text>
</g>
<path d="M102 41h10"></path>
<g>
<path d="M112 41h0"></path>
<path d="M312 41h0"></path>
<path d="M112 41a10 10 0 0 0 10 -10v0a10 10 0 0 1 10 -10"></path>
<g>
<path d="M132 21h160"></path>
</g>
<path d="M292 21a10 10 0 0 1 10 10v0a10 10 0 0 0 10 10"></path>
<path d="M112 41h20"></path>
<g>
<path d="M132 41h0"></path>
<path d="M292 41h0"></path>
<path d="M132 41h10"></path>
<g>
<path d="M142 41h0"></path>
<path d="M282 41h0"></path>
<g>
<path d="M142 41h0"></path>
<path d="M282 41h0"></path>
<g>
<path d="M142 41h0"></path>
<path d="M210 41h0"></path>
<path d="M142 41h20"></path>
<g>
<path d="M162 41h0"></path>
<path d="M190 41h0"></path>
<rect x="162" y="30" width="28" height="22" rx="10" ry="10"></rect>
<text x="176" y="45">+</text>
</g>
<path d="M190 41h20"></path>
<path d="M142 41a10 10 0 0 1 10 10v10a10 10 0 0 0 10 10"></path>
<g>
<path d="M162 71h0"></path>
<path d="M190 71h0"></path>
<rect x="162" y="60" width="28" height="22" rx="10" ry="10"></rect>
<text x="176" y="75">-</text>
</g>
<path d="M190 71a10 10 0 0 0 10 -10v-10a10 10 0 0 1 10 -10"></path>
</g>
<path d="M210 41h10"></path>
<g>
<path d="M220 41h0"></path>
<path d="M272 41h0"></path>
<rect x="220" y="30" width="52" height="22"></rect>
<text x="246" y="45">Mult</text>
</g>
<path d="M272 41h10"></path>
</g>
</g>
<path d="M282 41h10"></path>
<path d="M142 41a10 10 0 0 0 -10 10v29a10 10 0 0 0 10 10"></path>
<g>
<path d="M142 90h140"></path>
</g>
<path d="M282 90a10 10 0 0 0 10 -10v-29a10 10 0 0 0 -10 -10"></path>
</g>
<path d="M292 41h20"></path>
</g>
</g>
<path d="M 312 41 h 20 m -10 -10 v 20 m 10 -20 v 20"></path>
</g>
</svg>
