<svg class="railroad-diagram" xmlns="http://www.w3.org/2000/svg" width="437" height="81" viewBox="0 0 437 81">
<style>
    svg.railroad-diagram {
        background-color: hsl(30,20%,95%);
    }
    svg.railroad-diagram path {
        stroke-width: 3;
        stroke: black;
        fill: rgba(0,0,0,0);
    }
    svg.railroad-diagram text {
        font: bold 14px monospace;
        text-anchor: middle;
    }
    svg.railroad-diagram text.label {
        text-anchor: start;
    }
    svg.railroad-diagram text.comment {
        font: italic 12px monospace;
    }
    svg.railroad-diagram rect {
        stroke-width: 3;
        stroke: black;
        fill: hsl(120,100%,90%);
    }
</style>
<g transform="translate(.5 .5)">
<path d="M 20 31 v 20 m 10 -20 v 20 m -10 -10 h 20.5"></path>
<g>
<path d="M40 41h0"></path>
<path d="M396 41h0"></path>
<path d="M40 41h10"></path>
<g>
<path d="M50 41h0"></path>
<path d="M150 41h0"></path>
<rect x="50" y="30" width="100" height="22"></rect>
<text x="100" y="45">Comparison</text>
</g>
<path d="M150 41h10"></path>
<g>
<path d="M160 41h0"></path>
<path d="M396 41h0"></path>
<path d="M160 41a10 10 0 0 0 10 -10v0a10 10 0 0 1 10 -10"></path>
<g>
<path d="M180 21h196"></path>
</g>
<path d="M376 21a10 10 0 0 1 10 10v0a10 10 0 0 0 10 10"></path>
<path d="M160 41h20"></path>
<g>
<path d="M180 41h0"></path>
<path d="M376 41h0"></path>
<path d="M180 41h10"></path>
<g>
<path d="M190 41h0"></path>
<path d="M366 41h0"></path>
<g>
<path d="M190 41h0"></path>
<path d="M366 41h0"></path>
<path d="M190 41h10"></path>
<g>
<path d="M200 41h0"></path>
<path d="M236 41h0"></path>
<rect x="200" y="30" width="36" height="22" rx="10" ry="10"></rect>
<text x="218" y="45">&#38;&#38;</text>
</g>
<path d="M236 41h10"></path>
<path d="M246 41h10"></path>
<g>
<path d="M256 41h0"></path>
<path d="M356 41h0"></path>
<rect x="256" y="30" width="100" height="22"></rect>
<text x="306" y="45">Comparison</text>
</g>
<path d="M356 41h10"></path>
</g>
</g>
<path d="M366 41h10"></path>
<path d="M190 41a10 10 0 0 0 -10 10v0a10 10 0 0 0 10 10"></path>
<g>
<path d="M190 61h176"></path>
</g>
<path d="M366 61a10 10 0 0 0 10 -10v0a10 10 0 0 0 -10 -10"></path>
</g>
<path d="M376 41h20"></path>
</g>
</g>
<path d="M 396 41 h 20 m -10 -10 v 20 m 10 -20 v 20"></path>
</g>
</svg>
