<svg class="railroad-diagram" xmlns="http://www.w3.org/2000/svg" width="277" height="152" viewBox="0 0 277 152">
<style>
    svg.railroad-diagram {
        background-color: hsl(30,20%,95%);
    }
    svg.railroad-diagram path {
        stroke-width: 3;
        stroke: black;
        fill: rgba(0,0,0,0);
    }
    svg.railroad-diagram text {
        font: bold 14px monospace;
        text-anchor: middle;
    }
    svg.railroad-diagram text.label {
        text-anchor: start;
    }
    svg.railroad-diagram text.comment {
        font: italic 12px monospace;
    }
    svg.railroad-diagram rect {
        stroke-width: 3;
        stroke: black;
        fill: hsl(120,100%,90%);
    }
</style>
<g transform="translate(.5 .5)">
<path d="M 20 21 v 20 m 10 -20 v 20 m -10 -10 h 20.5"></path>
<g>
<path d="M40 31h0"></path>
<path d="M236 31h0"></path>
<path d="M40 31h20"></path>
<g>
<path d="M60 31h16"></path>
<path d="M200 31h16"></path>
<rect x="76" y="20" width="124" height="22"></rect>
<text x="138" y="35">NumberLiteral</text>
</g>
<path d="M216 31h20"></path>
<path d="M40 31a10 10 0 0 1 10 10v10a10 10 0 0 0 10 10"></path>
<g>
<path d="M60 61h12"></path>
<path d="M204 61h12"></path>
<rect x="72" y="50" width="132" height="22"></rect>
<text x="138" y="65">BooleanLiteral</text>
</g>
<path d="M216 61a10 10 0 0 0 10 -10v-10a10 10 0 0 1 10 -10"></path>
<path d="M40 31a10 10 0 0 1 10 10v40a10 10 0 0 0 10 10"></path>
<g>
<path d="M60 91h16"></path>
<path d="M200 91h16"></path>
<rect x="76" y="80" width="124" height="22"></rect>
<text x="138" y="95">StringLiteral</text>
</g>
<path d="M216 91a10 10 0 0 0 10 -10v-40a10 10 0 0 1 10 -10"></path>
<path d="M40 31a10 10 0 0 1 10 10v70a10 10 0 0 0 10 10"></path>
<g>
<path d="M60 121h0"></path>
<path d="M216 121h0"></path>
<rect x="60" y="110" width="156" height="22"></rect>
<text x="138" y="125">EnumMemberLiteral</text>
</g>
<path d="M216 121a10 10 0 0 0 10 -10v-70a10 10 0 0 1 10 -10"></path>
</g>
<path d="M 236 31 h 20 m -10 -10 v 20 m 10 -20 v 20"></path>
</g>
</svg>
