<svg class="railroad-diagram" xmlns="http://www.w3.org/2000/svg" width="525" height="81" viewBox="0 0 525 81">
<style>
    svg.railroad-diagram {
        background-color: hsl(30,20%,95%);
    }
    svg.railroad-diagram path {
        stroke-width: 3;
        stroke: black;
        fill: rgba(0,0,0,0);
    }
    svg.railroad-diagram text {
        font: bold 14px monospace;
        text-anchor: middle;
    }
    svg.railroad-diagram text.label {
        text-anchor: start;
    }
    svg.railroad-diagram text.comment {
        font: italic 12px monospace;
    }
    svg.railroad-diagram rect {
        stroke-width: 3;
        stroke: black;
        fill: hsl(120,100%,90%);
    }
</style>
<g transform="translate(.5 .5)">
<path d="M 20 31 v 20 m 10 -20 v 20 m -10 -10 h 20.5"></path>
<g>
<path d="M40 41h0"></path>
<path d="M484 41h0"></path>
<path d="M40 41h10"></path>
<g>
<path d="M50 41h0"></path>
<path d="M150 41h0"></path>
<rect x="50" y="30" width="100" height="22" rx="10" ry="10"></rect>
<text x="100" y="45">controller</text>
</g>
<path d="M150 41h10"></path>
<path d="M160 41h10"></path>
<g>
<path d="M170 41h0"></path>
<path d="M206 41h0"></path>
<rect x="170" y="30" width="36" height="22"></rect>
<text x="188" y="45">ID</text>
</g>
<path d="M206 41h10"></path>
<path d="M216 41h10"></path>
<g>
<path d="M226 41h0"></path>
<path d="M254 41h0"></path>
<rect x="226" y="30" width="28" height="22" rx="10" ry="10"></rect>
<text x="240" y="45">{</text>
</g>
<path d="M254 41h10"></path>
<g>
<path d="M264 41h0"></path>
<path d="M436 41h0"></path>
<path d="M264 41a10 10 0 0 0 10 -10v0a10 10 0 0 1 10 -10"></path>
<g>
<path d="M284 21h132"></path>
</g>
<path d="M416 21a10 10 0 0 1 10 10v0a10 10 0 0 0 10 10"></path>
<path d="M264 41h20"></path>
<g>
<path d="M284 41h0"></path>
<path d="M416 41h0"></path>
<path d="M284 41h10"></path>
<g>
<path d="M294 41h0"></path>
<path d="M406 41h0"></path>
<path d="M294 41h10"></path>
<g>
<path d="M304 41h0"></path>
<path d="M396 41h0"></path>
<rect x="304" y="30" width="92" height="22"></rect>
<text x="350" y="45">Component</text>
</g>
<path d="M396 41h10"></path>
</g>
<path d="M406 41h10"></path>
<path d="M294 41a10 10 0 0 0 -10 10v0a10 10 0 0 0 10 10"></path>
<g>
<path d="M294 61h112"></path>
</g>
<path d="M406 61a10 10 0 0 0 10 -10v0a10 10 0 0 0 -10 -10"></path>
</g>
<path d="M416 41h20"></path>
</g>
<path d="M436 41h10"></path>
<g>
<path d="M446 41h0"></path>
<path d="M474 41h0"></path>
<rect x="446" y="30" width="28" height="22" rx="10" ry="10"></rect>
<text x="460" y="45">}</text>
</g>
<path d="M474 41h10"></path>
</g>
<path d="M 484 41 h 20 m -10 -10 v 20 m 10 -20 v 20"></path>
</g>
</svg>
