<svg class="railroad-diagram" xmlns="http://www.w3.org/2000/svg" width="517" height="81" viewBox="0 0 517 81">
<style>
    svg.railroad-diagram {
        background-color: hsl(30,20%,95%);
    }
    svg.railroad-diagram path {
        stroke-width: 3;
        stroke: black;
        fill: rgba(0,0,0,0);
    }
    svg.railroad-diagram text {
        font: bold 14px monospace;
        text-anchor: middle;
    }
    svg.railroad-diagram text.label {
        text-anchor: start;
    }
    svg.railroad-diagram text.comment {
        font: italic 12px monospace;
    }
    svg.railroad-diagram rect {
        stroke-width: 3;
        stroke: black;
        fill: hsl(120,100%,90%);
    }
</style>
<g transform="translate(.5 .5)">
<path d="M 20 31 v 20 m 10 -20 v 20 m -10 -10 h 20.5"></path>
<g>
<path d="M40 41h0"></path>
<path d="M476 41h0"></path>
<path d="M40 41h10"></path>
<g>
<path d="M50 41h0"></path>
<path d="M126 41h0"></path>
<rect x="50" y="30" width="76" height="22" rx="10" ry="10"></rect>
<text x="88" y="45">control</text>
</g>
<path d="M126 41h10"></path>
<path d="M136 41h10"></path>
<g>
<path d="M146 41h0"></path>
<path d="M182 41h0"></path>
<rect x="146" y="30" width="36" height="22"></rect>
<text x="164" y="45">ID</text>
</g>
<path d="M182 41h10"></path>
<path d="M192 41h10"></path>
<g>
<path d="M202 41h0"></path>
<path d="M230 41h0"></path>
<rect x="202" y="30" width="28" height="22" rx="10" ry="10"></rect>
<text x="216" y="45">{</text>
</g>
<path d="M230 41h10"></path>
<g>
<path d="M240 41h0"></path>
<path d="M428 41h0"></path>
<path d="M240 41a10 10 0 0 0 10 -10v0a10 10 0 0 1 10 -10"></path>
<g>
<path d="M260 21h148"></path>
</g>
<path d="M408 21a10 10 0 0 1 10 10v0a10 10 0 0 0 10 10"></path>
<path d="M240 41h20"></path>
<g>
<path d="M260 41h0"></path>
<path d="M408 41h0"></path>
<path d="M260 41h10"></path>
<g>
<path d="M270 41h0"></path>
<path d="M398 41h0"></path>
<path d="M270 41h10"></path>
<g>
<path d="M280 41h0"></path>
<path d="M388 41h0"></path>
<rect x="280" y="30" width="108" height="22"></rect>
<text x="334" y="45">ControlItem</text>
</g>
<path d="M388 41h10"></path>
</g>
<path d="M398 41h10"></path>
<path d="M270 41a10 10 0 0 0 -10 10v0a10 10 0 0 0 10 10"></path>
<g>
<path d="M270 61h128"></path>
</g>
<path d="M398 61a10 10 0 0 0 10 -10v0a10 10 0 0 0 -10 -10"></path>
</g>
<path d="M408 41h20"></path>
</g>
<path d="M428 41h10"></path>
<g>
<path d="M438 41h0"></path>
<path d="M466 41h0"></path>
<rect x="438" y="30" width="28" height="22" rx="10" ry="10"></rect>
<text x="452" y="45">}</text>
</g>
<path d="M466 41h10"></path>
</g>
<path d="M 476 41 h 20 m -10 -10 v 20 m 10 -20 v 20"></path>
</g>
</svg>
