<svg class="railroad-diagram" xmlns="http://www.w3.org/2000/svg" width="605" height="81" viewBox="0 0 605 81">
<style>
    svg.railroad-diagram {
        background-color: hsl(30,20%,95%);
    }
    svg.railroad-diagram path {
        stroke-width: 3;
        stroke: black;
        fill: rgba(0,0,0,0);
    }
    svg.railroad-diagram text {
        font: bold 14px monospace;
        text-anchor: middle;
    }
    svg.railroad-diagram text.label {
        text-anchor: start;
    }
    svg.railroad-diagram text.comment {
        font: italic 12px monospace;
    }
    svg.railroad-diagram rect {
        stroke-width: 3;
        stroke: black;
        fill: hsl(120,100%,90%);
    }
</style>
<g transform="translate(.5 .5)">
<path d="M 20 31 v 20 m 10 -20 v 20 m -10 -10 h 20.5"></path>
<g>
<path d="M40 41h0"></path>
<path d="M564 41h0"></path>
<path d="M40 41h10"></path>
<g>
<path d="M50 41h0"></path>
<path d="M150 41h0"></path>
<rect x="50" y="30" width="100" height="22" rx="10" ry="10"></rect>
<text x="100" y="45">controller</text>
</g>
<path d="M150 41h10"></path>
<path d="M160 41h10"></path>
<g>
<path d="M170 41h0"></path>
<path d="M206 41h0"></path>
<rect x="170" y="30" width="36" height="22"></rect>
<text x="188" y="45">ID</text>
</g>
<path d="M206 41h10"></path>
<path d="M216 41h10"></path>
<g>
<path d="M226 41h0"></path>
<path d="M254 41h0"></path>
<rect x="226" y="30" width="28" height="22" rx="10" ry="10"></rect>
<text x="240" y="45">{</text>
</g>
<path d="M254 41h10"></path>
<g>
<path d="M264 41h0"></path>
<path d="M516 41h0"></path>
<path d="M264 41a10 10 0 0 0 10 -10v0a10 10 0 0 1 10 -10"></path>
<g>
<path d="M284 21h212"></path>
</g>
<path d="M496 21a10 10 0 0 1 10 10v0a10 10 0 0 0 10 10"></path>
<path d="M264 41h20"></path>
<g>
<path d="M284 41h0"></path>
<path d="M496 41h0"></path>
<path d="M284 41h10"></path>
<g>
<path d="M294 41h0"></path>
<path d="M486 41h0"></path>
<path d="M294 41h10"></path>
<g>
<path d="M304 41h0"></path>
<path d="M476 41h0"></path>
<rect x="304" y="30" width="172" height="22"></rect>
<text x="390" y="45">ControllerComponent</text>
</g>
<path d="M476 41h10"></path>
</g>
<path d="M486 41h10"></path>
<path d="M294 41a10 10 0 0 0 -10 10v0a10 10 0 0 0 10 10"></path>
<g>
<path d="M294 61h192"></path>
</g>
<path d="M486 61a10 10 0 0 0 10 -10v0a10 10 0 0 0 -10 -10"></path>
</g>
<path d="M496 41h20"></path>
</g>
<path d="M516 41h10"></path>
<g>
<path d="M526 41h0"></path>
<path d="M554 41h0"></path>
<rect x="526" y="30" width="28" height="22" rx="10" ry="10"></rect>
<text x="540" y="45">}</text>
</g>
<path d="M554 41h10"></path>
</g>
<path d="M 564 41 h 20 m -10 -10 v 20 m 10 -20 v 20"></path>
</g>
</svg>
