<svg class="railroad-diagram" xmlns="http://www.w3.org/2000/svg" width="437" height="81" viewBox="0 0 437 81">
<style>
    svg.railroad-diagram {
        background-color: hsl(30,20%,95%);
    }
    svg.railroad-diagram path {
        stroke-width: 3;
        stroke: black;
        fill: rgba(0,0,0,0);
    }
    svg.railroad-diagram text {
        font: bold 14px monospace;
        text-anchor: middle;
    }
    svg.railroad-diagram text.label {
        text-anchor: start;
    }
    svg.railroad-diagram text.comment {
        font: italic 12px monospace;
    }
    svg.railroad-diagram rect {
        stroke-width: 3;
        stroke: black;
        fill: hsl(120,100%,90%);
    }
</style>
<g transform="translate(.5 .5)">
<path d="M 20 31 v 20 m 10 -20 v 20 m -10 -10 h 20.5"></path>
<g>
<path d="M40 41h0"></path>
<path d="M396 41h0"></path>
<path d="M40 41h10"></path>
<g>
<path d="M50 41h0"></path>
<path d="M78 41h0"></path>
<rect x="50" y="30" width="28" height="22" rx="10" ry="10"></rect>
<text x="64" y="45">{</text>
</g>
<path d="M78 41h10"></path>
<g>
<path d="M88 41h0"></path>
<path d="M348 41h0"></path>
<path d="M88 41a10 10 0 0 0 10 -10v0a10 10 0 0 1 10 -10"></path>
<g>
<path d="M108 21h220"></path>
</g>
<path d="M328 21a10 10 0 0 1 10 10v0a10 10 0 0 0 10 10"></path>
<path d="M88 41h20"></path>
<g>
<path d="M108 41h0"></path>
<path d="M328 41h0"></path>
<path d="M108 41h10"></path>
<g>
<path d="M118 41h0"></path>
<path d="M318 41h0"></path>
<path d="M118 41h10"></path>
<g>
<path d="M128 41h0"></path>
<path d="M308 41h0"></path>
<rect x="128" y="30" width="180" height="22"></rect>
<text x="218" y="45">ControlUnitStatement</text>
</g>
<path d="M308 41h10"></path>
</g>
<path d="M318 41h10"></path>
<path d="M118 41a10 10 0 0 0 -10 10v0a10 10 0 0 0 10 10"></path>
<g>
<path d="M118 61h200"></path>
</g>
<path d="M318 61a10 10 0 0 0 10 -10v0a10 10 0 0 0 -10 -10"></path>
</g>
<path d="M328 41h20"></path>
</g>
<path d="M348 41h10"></path>
<g>
<path d="M358 41h0"></path>
<path d="M386 41h0"></path>
<rect x="358" y="30" width="28" height="22" rx="10" ry="10"></rect>
<text x="372" y="45">}</text>
</g>
<path d="M386 41h10"></path>
</g>
<path d="M 396 41 h 20 m -10 -10 v 20 m 10 -20 v 20"></path>
</g>
</svg>
