<svg class="railroad-diagram" xmlns="http://www.w3.org/2000/svg" width="205" height="92" viewBox="0 0 205 92">
<style>
    svg.railroad-diagram {
        background-color: hsl(30,20%,95%);
    }
    svg.railroad-diagram path {
        stroke-width: 3;
        stroke: black;
        fill: rgba(0,0,0,0);
    }
    svg.railroad-diagram text {
        font: bold 14px monospace;
        text-anchor: middle;
    }
    svg.railroad-diagram text.label {
        text-anchor: start;
    }
    svg.railroad-diagram text.comment {
        font: italic 12px monospace;
    }
    svg.railroad-diagram rect {
        stroke-width: 3;
        stroke: black;
        fill: hsl(120,100%,90%);
    }
</style>
<g transform="translate(.5 .5)">
<path d="M 20 21 v 20 m 10 -20 v 20 m -10 -10 h 20.5"></path>
<g>
<path d="M40 31h0"></path>
<path d="M164 31h0"></path>
<path d="M40 31h20"></path>
<g>
<path d="M60 31h0"></path>
<path d="M144 31h0"></path>
<rect x="60" y="20" width="84" height="22"></rect>
<text x="102" y="35">TypeDecl</text>
</g>
<path d="M144 31h20"></path>
<path d="M40 31a10 10 0 0 1 10 10v10a10 10 0 0 0 10 10"></path>
<g>
<path d="M60 61h4"></path>
<path d="M140 61h4"></path>
<rect x="64" y="50" width="76" height="22"></rect>
<text x="102" y="65">VarDecl</text>
</g>
<path d="M144 61a10 10 0 0 0 10 -10v-10a10 10 0 0 1 10 -10"></path>
</g>
<path d="M 164 31 h 20 m -10 -10 v 20 m 10 -20 v 20"></path>
</g>
</svg>
