<svg class="railroad-diagram" xmlns="http://www.w3.org/2000/svg" width="277" height="182" viewBox="0 0 277 182">
<style>
    svg.railroad-diagram {
        background-color: hsl(30,20%,95%);
    }
    svg.railroad-diagram path {
        stroke-width: 3;
        stroke: black;
        fill: rgba(0,0,0,0);
    }
    svg.railroad-diagram text {
        font: bold 14px monospace;
        text-anchor: middle;
    }
    svg.railroad-diagram text.label {
        text-anchor: start;
    }
    svg.railroad-diagram text.comment {
        font: italic 12px monospace;
    }
    svg.railroad-diagram rect {
        stroke-width: 3;
        stroke: black;
        fill: hsl(120,100%,90%);
    }
</style>
<g transform="translate(.5 .5)">
<path d="M 20 21 v 20 m 10 -20 v 20 m -10 -10 h 20.5"></path>
<g>
<path d="M40 31h0"></path>
<path d="M236 31h0"></path>
<path d="M40 31h20"></path>
<g>
<path d="M60 31h36"></path>
<path d="M180 31h36"></path>
<rect x="96" y="20" width="84" height="22"></rect>
<text x="138" y="35">EnumDecl</text>
</g>
<path d="M216 31h20"></path>
<path d="M40 31a10 10 0 0 1 10 10v10a10 10 0 0 0 10 10"></path>
<g>
<path d="M60 61h28"></path>
<path d="M188 61h28"></path>
<rect x="88" y="50" width="100" height="22"></rect>
<text x="138" y="65">StructDecl</text>
</g>
<path d="M216 61a10 10 0 0 0 10 -10v-10a10 10 0 0 1 10 -10"></path>
<path d="M40 31a10 10 0 0 1 10 10v40a10 10 0 0 0 10 10"></path>
<g>
<path d="M60 91h40"></path>
<path d="M176 91h40"></path>
<rect x="100" y="80" width="76" height="22"></rect>
<text x="138" y="95">VarDecl</text>
</g>
<path d="M216 91a10 10 0 0 0 10 -10v-40a10 10 0 0 1 10 -10"></path>
<path d="M40 31a10 10 0 0 1 10 10v70a10 10 0 0 0 10 10"></path>
<g>
<path d="M60 121h0"></path>
<path d="M216 121h0"></path>
<rect x="60" y="110" width="156" height="22"></rect>
<text x="138" y="125">FunctionBlockDecl</text>
</g>
<path d="M216 121a10 10 0 0 0 10 -10v-70a10 10 0 0 1 10 -10"></path>
<path d="M40 31a10 10 0 0 1 10 10v100a10 10 0 0 0 10 10"></path>
<g>
<path d="M60 151h32"></path>
<path d="M184 151h32"></path>
<rect x="92" y="140" width="92" height="22"></rect>
<text x="138" y="155">TypeAlias</text>
</g>
<path d="M216 151a10 10 0 0 0 10 -10v-100a10 10 0 0 1 10 -10"></path>
</g>
<path d="M 236 31 h 20 m -10 -10 v 20 m 10 -20 v 20"></path>
</g>
</svg>
