<svg class="railroad-diagram" xmlns="http://www.w3.org/2000/svg" width="421" height="81" viewBox="0 0 421 81">
<style>
    svg.railroad-diagram {
        background-color: hsl(30,20%,95%);
    }
    svg.railroad-diagram path {
        stroke-width: 3;
        stroke: black;
        fill: rgba(0,0,0,0);
    }
    svg.railroad-diagram text {
        font: bold 14px monospace;
        text-anchor: middle;
    }
    svg.railroad-diagram text.label {
        text-anchor: start;
    }
    svg.railroad-diagram text.comment {
        font: italic 12px monospace;
    }
    svg.railroad-diagram rect {
        stroke-width: 3;
        stroke: black;
        fill: hsl(120,100%,90%);
    }
</style>
<g transform="translate(.5 .5)">
<path d="M 20 31 v 20 m 10 -20 v 20 m -10 -10 h 20.5"></path>
<g>
<path d="M40 41h0"></path>
<path d="M380 41h0"></path>
<path d="M40 41h10"></path>
<g>
<path d="M50 41h0"></path>
<path d="M118 41h0"></path>
<rect x="50" y="30" width="68" height="22" rx="10" ry="10"></rect>
<text x="84" y="45">inputs</text>
</g>
<path d="M118 41h10"></path>
<path d="M128 41h10"></path>
<g>
<path d="M138 41h0"></path>
<path d="M166 41h0"></path>
<rect x="138" y="30" width="28" height="22" rx="10" ry="10"></rect>
<text x="152" y="45">{</text>
</g>
<path d="M166 41h10"></path>
<g>
<path d="M176 41h0"></path>
<path d="M332 41h0"></path>
<path d="M176 41a10 10 0 0 0 10 -10v0a10 10 0 0 1 10 -10"></path>
<g>
<path d="M196 21h116"></path>
</g>
<path d="M312 21a10 10 0 0 1 10 10v0a10 10 0 0 0 10 10"></path>
<path d="M176 41h20"></path>
<g>
<path d="M196 41h0"></path>
<path d="M312 41h0"></path>
<path d="M196 41h10"></path>
<g>
<path d="M206 41h0"></path>
<path d="M302 41h0"></path>
<path d="M206 41h10"></path>
<g>
<path d="M216 41h0"></path>
<path d="M292 41h0"></path>
<rect x="216" y="30" width="76" height="22"></rect>
<text x="254" y="45">VarDecl</text>
</g>
<path d="M292 41h10"></path>
</g>
<path d="M302 41h10"></path>
<path d="M206 41a10 10 0 0 0 -10 10v0a10 10 0 0 0 10 10"></path>
<g>
<path d="M206 61h96"></path>
</g>
<path d="M302 61a10 10 0 0 0 10 -10v0a10 10 0 0 0 -10 -10"></path>
</g>
<path d="M312 41h20"></path>
</g>
<path d="M332 41h10"></path>
<g>
<path d="M342 41h0"></path>
<path d="M370 41h0"></path>
<rect x="342" y="30" width="28" height="22" rx="10" ry="10"></rect>
<text x="356" y="45">}</text>
</g>
<path d="M370 41h10"></path>
</g>
<path d="M 380 41 h 20 m -10 -10 v 20 m 10 -20 v 20"></path>
</g>
</svg>
