<svg class="railroad-diagram" xmlns="http://www.w3.org/2000/svg" width="797" height="81" viewBox="0 0 797 81">
<style>
    svg.railroad-diagram {
        background-color: hsl(30,20%,95%);
    }
    svg.railroad-diagram path {
        stroke-width: 3;
        stroke: black;
        fill: rgba(0,0,0,0);
    }
    svg.railroad-diagram text {
        font: bold 14px monospace;
        text-anchor: middle;
    }
    svg.railroad-diagram text.label {
        text-anchor: start;
    }
    svg.railroad-diagram text.comment {
        font: italic 12px monospace;
    }
    svg.railroad-diagram rect {
        stroke-width: 3;
        stroke: black;
        fill: hsl(120,100%,90%);
    }
</style>
<g transform="translate(.5 .5)">
<path d="M 20 31 v 20 m 10 -20 v 20 m -10 -10 h 20.5"></path>
<g>
<path d="M40 41h0"></path>
<path d="M756 41h0"></path>
<path d="M40 41h10"></path>
<g>
<path d="M50 41h0"></path>
<path d="M174 41h0"></path>
<rect x="50" y="30" width="124" height="22" rx="10" ry="10"></rect>
<text x="112" y="45">functionblock</text>
</g>
<path d="M174 41h10"></path>
<path d="M184 41h10"></path>
<g>
<path d="M194 41h0"></path>
<path d="M230 41h0"></path>
<rect x="194" y="30" width="36" height="22"></rect>
<text x="212" y="45">ID</text>
</g>
<path d="M230 41h10"></path>
<g>
<path d="M240 41h0"></path>
<path d="M408 41h0"></path>
<path d="M240 41a10 10 0 0 0 10 -10v0a10 10 0 0 1 10 -10"></path>
<g>
<path d="M260 21h128"></path>
</g>
<path d="M388 21a10 10 0 0 1 10 10v0a10 10 0 0 0 10 10"></path>
<path d="M240 41h20"></path>
<g>
<path d="M260 41h0"></path>
<path d="M388 41h0"></path>
<g>
<path d="M260 41h0"></path>
<path d="M388 41h0"></path>
<path d="M260 41h10"></path>
<g>
<path d="M270 41h0"></path>
<path d="M322 41h0"></path>
<rect x="270" y="30" width="52" height="22" rx="10" ry="10"></rect>
<text x="296" y="45">from</text>
</g>
<path d="M322 41h10"></path>
<path d="M332 41h10"></path>
<g>
<path d="M342 41h0"></path>
<path d="M378 41h0"></path>
<rect x="342" y="30" width="36" height="22"></rect>
<text x="360" y="45">ID</text>
</g>
<path d="M378 41h10"></path>
</g>
</g>
<path d="M388 41h20"></path>
</g>
<path d="M408 41h10"></path>
<g>
<path d="M418 41h0"></path>
<path d="M446 41h0"></path>
<rect x="418" y="30" width="28" height="22" rx="10" ry="10"></rect>
<text x="432" y="45">{</text>
</g>
<path d="M446 41h10"></path>
<g>
<path d="M456 41h0"></path>
<path d="M708 41h0"></path>
<path d="M456 41a10 10 0 0 0 10 -10v0a10 10 0 0 1 10 -10"></path>
<g>
<path d="M476 21h212"></path>
</g>
<path d="M688 21a10 10 0 0 1 10 10v0a10 10 0 0 0 10 10"></path>
<path d="M456 41h20"></path>
<g>
<path d="M476 41h0"></path>
<path d="M688 41h0"></path>
<path d="M476 41h10"></path>
<g>
<path d="M486 41h0"></path>
<path d="M678 41h0"></path>
<path d="M486 41h10"></path>
<g>
<path d="M496 41h0"></path>
<path d="M668 41h0"></path>
<rect x="496" y="30" width="172" height="22"></rect>
<text x="582" y="45">FunctionBlockMember</text>
</g>
<path d="M668 41h10"></path>
</g>
<path d="M678 41h10"></path>
<path d="M486 41a10 10 0 0 0 -10 10v0a10 10 0 0 0 10 10"></path>
<g>
<path d="M486 61h192"></path>
</g>
<path d="M678 61a10 10 0 0 0 10 -10v0a10 10 0 0 0 -10 -10"></path>
</g>
<path d="M688 41h20"></path>
</g>
<path d="M708 41h10"></path>
<g>
<path d="M718 41h0"></path>
<path d="M746 41h0"></path>
<rect x="718" y="30" width="28" height="22" rx="10" ry="10"></rect>
<text x="732" y="45">}</text>
</g>
<path d="M746 41h10"></path>
</g>
<path d="M 756 41 h 20 m -10 -10 v 20 m 10 -20 v 20"></path>
</g>
</svg>
