<svg class="railroad-diagram" xmlns="http://www.w3.org/2000/svg" width="429" height="81" viewBox="0 0 429 81">
<style>
    svg.railroad-diagram {
        background-color: hsl(30,20%,95%);
    }
    svg.railroad-diagram path {
        stroke-width: 3;
        stroke: black;
        fill: rgba(0,0,0,0);
    }
    svg.railroad-diagram text {
        font: bold 14px monospace;
        text-anchor: middle;
    }
    svg.railroad-diagram text.label {
        text-anchor: start;
    }
    svg.railroad-diagram text.comment {
        font: italic 12px monospace;
    }
    svg.railroad-diagram rect {
        stroke-width: 3;
        stroke: black;
        fill: hsl(120,100%,90%);
    }
</style>
<g transform="translate(.5 .5)">
<path d="M 20 31 v 20 m 10 -20 v 20 m -10 -10 h 20.5"></path>
<g>
<path d="M40 41h0"></path>
<path d="M388 41h0"></path>
<path d="M40 41h10"></path>
<g>
<path d="M50 41h0"></path>
<path d="M126 41h0"></path>
<rect x="50" y="30" width="76" height="22" rx="10" ry="10"></rect>
<text x="88" y="45">outputs</text>
</g>
<path d="M126 41h10"></path>
<path d="M136 41h10"></path>
<g>
<path d="M146 41h0"></path>
<path d="M174 41h0"></path>
<rect x="146" y="30" width="28" height="22" rx="10" ry="10"></rect>
<text x="160" y="45">{</text>
</g>
<path d="M174 41h10"></path>
<g>
<path d="M184 41h0"></path>
<path d="M340 41h0"></path>
<path d="M184 41a10 10 0 0 0 10 -10v0a10 10 0 0 1 10 -10"></path>
<g>
<path d="M204 21h116"></path>
</g>
<path d="M320 21a10 10 0 0 1 10 10v0a10 10 0 0 0 10 10"></path>
<path d="M184 41h20"></path>
<g>
<path d="M204 41h0"></path>
<path d="M320 41h0"></path>
<path d="M204 41h10"></path>
<g>
<path d="M214 41h0"></path>
<path d="M310 41h0"></path>
<path d="M214 41h10"></path>
<g>
<path d="M224 41h0"></path>
<path d="M300 41h0"></path>
<rect x="224" y="30" width="76" height="22"></rect>
<text x="262" y="45">VarDecl</text>
</g>
<path d="M300 41h10"></path>
</g>
<path d="M310 41h10"></path>
<path d="M214 41a10 10 0 0 0 -10 10v0a10 10 0 0 0 10 10"></path>
<g>
<path d="M214 61h96"></path>
</g>
<path d="M310 61a10 10 0 0 0 10 -10v0a10 10 0 0 0 -10 -10"></path>
</g>
<path d="M320 41h20"></path>
</g>
<path d="M340 41h10"></path>
<g>
<path d="M350 41h0"></path>
<path d="M378 41h0"></path>
<rect x="350" y="30" width="28" height="22" rx="10" ry="10"></rect>
<text x="364" y="45">}</text>
</g>
<path d="M378 41h10"></path>
</g>
<path d="M 388 41 h 20 m -10 -10 v 20 m 10 -20 v 20"></path>
</g>
</svg>
