<svg class="railroad-diagram" xmlns="http://www.w3.org/2000/svg" width="301" height="152" viewBox="0 0 301 152">
<style>
    svg.railroad-diagram {
        background-color: hsl(30,20%,95%);
    }
    svg.railroad-diagram path {
        stroke-width: 3;
        stroke: black;
        fill: rgba(0,0,0,0);
    }
    svg.railroad-diagram text {
        font: bold 14px monospace;
        text-anchor: middle;
    }
    svg.railroad-diagram text.label {
        text-anchor: start;
    }
    svg.railroad-diagram text.comment {
        font: italic 12px monospace;
    }
    svg.railroad-diagram rect {
        stroke-width: 3;
        stroke: black;
        fill: hsl(120,100%,90%);
    }
</style>
<g transform="translate(.5 .5)">
<path d="M 20 21 v 20 m 10 -20 v 20 m -10 -10 h 20.5"></path>
<g>
<path d="M40 31h0"></path>
<path d="M260 31h0"></path>
<path d="M40 31h20"></path>
<g>
<path d="M60 31h4"></path>
<path d="M236 31h4"></path>
<rect x="64" y="20" width="172" height="22"></rect>
<text x="150" y="35">FunctionBlockInputs</text>
</g>
<path d="M240 31h20"></path>
<path d="M40 31a10 10 0 0 1 10 10v10a10 10 0 0 0 10 10"></path>
<g>
<path d="M60 61h0"></path>
<path d="M240 61h0"></path>
<rect x="60" y="50" width="180" height="22"></rect>
<text x="150" y="65">FunctionBlockOutputs</text>
</g>
<path d="M240 61a10 10 0 0 0 10 -10v-10a10 10 0 0 1 10 -10"></path>
<path d="M40 31a10 10 0 0 1 10 10v40a10 10 0 0 0 10 10"></path>
<g>
<path d="M60 91h4"></path>
<path d="M236 91h4"></path>
<rect x="64" y="80" width="172" height="22"></rect>
<text x="150" y="95">FunctionBlockLocals</text>
</g>
<path d="M240 91a10 10 0 0 0 10 -10v-40a10 10 0 0 1 10 -10"></path>
<path d="M40 31a10 10 0 0 1 10 10v70a10 10 0 0 0 10 10"></path>
<g>
<path d="M60 121h8"></path>
<path d="M232 121h8"></path>
<rect x="68" y="110" width="164" height="22"></rect>
<text x="150" y="125">FunctionBlockLogic</text>
</g>
<path d="M240 121a10 10 0 0 0 10 -10v-70a10 10 0 0 1 10 -10"></path>
</g>
<path d="M 260 31 h 20 m -10 -10 v 20 m 10 -20 v 20"></path>
</g>
</svg>
