<svg class="railroad-diagram" xmlns="http://www.w3.org/2000/svg" width="261" height="122" viewBox="0 0 261 122">
<style>
    svg.railroad-diagram {
        background-color: hsl(30,20%,95%);
    }
    svg.railroad-diagram path {
        stroke-width: 3;
        stroke: black;
        fill: rgba(0,0,0,0);
    }
    svg.railroad-diagram text {
        font: bold 14px monospace;
        text-anchor: middle;
    }
    svg.railroad-diagram text.label {
        text-anchor: start;
    }
    svg.railroad-diagram text.comment {
        font: italic 12px monospace;
    }
    svg.railroad-diagram rect {
        stroke-width: 3;
        stroke: black;
        fill: hsl(120,100%,90%);
    }
</style>
<g transform="translate(.5 .5)">
<path d="M 20 21 v 20 m 10 -20 v 20 m -10 -10 h 20.5"></path>
<g>
<path d="M40 31h0"></path>
<path d="M220 31h0"></path>
<path d="M40 31h20"></path>
<g>
<path d="M60 31h20"></path>
<path d="M180 31h20"></path>
<rect x="80" y="20" width="100" height="22"></rect>
<text x="130" y="35">Controller</text>
</g>
<path d="M200 31h20"></path>
<path d="M40 31a10 10 0 0 1 10 10v10a10 10 0 0 0 10 10"></path>
<g>
<path d="M60 61h48"></path>
<path d="M152 61h48"></path>
<rect x="108" y="50" width="44" height="22"></rect>
<text x="130" y="65">Bus</text>
</g>
<path d="M200 61a10 10 0 0 0 10 -10v-10a10 10 0 0 1 10 -10"></path>
<path d="M40 31a10 10 0 0 1 10 10v40a10 10 0 0 0 10 10"></path>
<g>
<path d="M60 91h0"></path>
<path d="M200 91h0"></path>
<rect x="60" y="80" width="140" height="22"></rect>
<text x="130" y="95">NetworkSettings</text>
</g>
<path d="M200 91a10 10 0 0 0 10 -10v-40a10 10 0 0 1 10 -10"></path>
</g>
<path d="M 220 31 h 20 m -10 -10 v 20 m 10 -20 v 20"></path>
</g>
</svg>
