<svg class="railroad-diagram" xmlns="http://www.w3.org/2000/svg" width="709" height="81" viewBox="0 0 709 81">
<style>
    svg.railroad-diagram {
        background-color: hsl(30,20%,95%);
    }
    svg.railroad-diagram path {
        stroke-width: 3;
        stroke: black;
        fill: rgba(0,0,0,0);
    }
    svg.railroad-diagram text {
        font: bold 14px monospace;
        text-anchor: middle;
    }
    svg.railroad-diagram text.label {
        text-anchor: start;
    }
    svg.railroad-diagram text.comment {
        font: italic 12px monospace;
    }
    svg.railroad-diagram rect {
        stroke-width: 3;
        stroke: black;
        fill: hsl(120,100%,90%);
    }
</style>
<g transform="translate(.5 .5)">
<path d="M 20 31 v 20 m 10 -20 v 20 m -10 -10 h 20.5"></path>
<g>
<path d="M40 41h0"></path>
<path d="M668 41h0"></path>
<path d="M40 41h10"></path>
<g>
<path d="M50 41h0"></path>
<path d="M86 41h0"></path>
<rect x="50" y="30" width="36" height="22" rx="10" ry="10"></rect>
<text x="68" y="45">if</text>
</g>
<path d="M86 41h10"></path>
<path d="M96 41h10"></path>
<g>
<path d="M106 41h0"></path>
<path d="M134 41h0"></path>
<rect x="106" y="30" width="28" height="22" rx="10" ry="10"></rect>
<text x="120" y="45">(</text>
</g>
<path d="M134 41h10"></path>
<path d="M144 41h10"></path>
<g>
<path d="M154 41h0"></path>
<path d="M206 41h0"></path>
<rect x="154" y="30" width="52" height="22"></rect>
<text x="180" y="45">Expr</text>
</g>
<path d="M206 41h10"></path>
<path d="M216 41h10"></path>
<g>
<path d="M226 41h0"></path>
<path d="M254 41h0"></path>
<rect x="226" y="30" width="28" height="22" rx="10" ry="10"></rect>
<text x="240" y="45">)</text>
</g>
<path d="M254 41h10"></path>
<path d="M264 41h10"></path>
<g>
<path d="M274 41h0"></path>
<path d="M334 41h0"></path>
<rect x="274" y="30" width="60" height="22"></rect>
<text x="304" y="45">Block</text>
</g>
<path d="M334 41h10"></path>
<g>
<path d="M344 41h0"></path>
<path d="M524 41h0"></path>
<path d="M344 41a10 10 0 0 0 10 -10v0a10 10 0 0 1 10 -10"></path>
<g>
<path d="M364 21h140"></path>
</g>
<path d="M504 21a10 10 0 0 1 10 10v0a10 10 0 0 0 10 10"></path>
<path d="M344 41h20"></path>
<g>
<path d="M364 41h0"></path>
<path d="M504 41h0"></path>
<path d="M364 41h10"></path>
<g>
<path d="M374 41h0"></path>
<path d="M494 41h0"></path>
<path d="M374 41h10"></path>
<g>
<path d="M384 41h0"></path>
<path d="M484 41h0"></path>
<rect x="384" y="30" width="100" height="22"></rect>
<text x="434" y="45">ElseIfStmt</text>
</g>
<path d="M484 41h10"></path>
</g>
<path d="M494 41h10"></path>
<path d="M374 41a10 10 0 0 0 -10 10v0a10 10 0 0 0 10 10"></path>
<g>
<path d="M374 61h120"></path>
</g>
<path d="M494 61a10 10 0 0 0 10 -10v0a10 10 0 0 0 -10 -10"></path>
</g>
<path d="M504 41h20"></path>
</g>
<g>
<path d="M524 41h0"></path>
<path d="M668 41h0"></path>
<path d="M524 41a10 10 0 0 0 10 -10v0a10 10 0 0 1 10 -10"></path>
<g>
<path d="M544 21h104"></path>
</g>
<path d="M648 21a10 10 0 0 1 10 10v0a10 10 0 0 0 10 10"></path>
<path d="M524 41h20"></path>
<g>
<path d="M544 41h0"></path>
<path d="M648 41h0"></path>
<path d="M544 41h10"></path>
<g>
<path d="M554 41h0"></path>
<path d="M638 41h0"></path>
<rect x="554" y="30" width="84" height="22"></rect>
<text x="596" y="45">ElseStmt</text>
</g>
<path d="M638 41h10"></path>
</g>
<path d="M648 41h20"></path>
</g>
</g>
<path d="M 668 41 h 20 m -10 -10 v 20 m 10 -20 v 20"></path>
</g>
</svg>
