<svg class="railroad-diagram" xmlns="http://www.w3.org/2000/svg" width="369" height="62" viewBox="0 0 369 62">
<style>
    svg.railroad-diagram {
        background-color: hsl(30,20%,95%);
    }
    svg.railroad-diagram path {
        stroke-width: 3;
        stroke: black;
        fill: rgba(0,0,0,0);
    }
    svg.railroad-diagram text {
        font: bold 14px monospace;
        text-anchor: middle;
    }
    svg.railroad-diagram text.label {
        text-anchor: start;
    }
    svg.railroad-diagram text.comment {
        font: italic 12px monospace;
    }
    svg.railroad-diagram rect {
        stroke-width: 3;
        stroke: black;
        fill: hsl(120,100%,90%);
    }
</style>
<g transform="translate(.5 .5)">
<path d="M 20 21 v 20 m 10 -20 v 20 m -10 -10 h 20.5"></path>
<g>
<path d="M40 31h0"></path>
<path d="M328 31h0"></path>
<path d="M40 31h10"></path>
<g>
<path d="M50 31h0"></path>
<path d="M118 31h0"></path>
<rect x="50" y="20" width="68" height="22" rx="10" ry="10"></rect>
<text x="84" y="35">import</text>
</g>
<path d="M118 31h10"></path>
<path d="M128 31h10"></path>
<g>
<path d="M138 31h0"></path>
<path d="M214 31h0"></path>
<rect x="138" y="20" width="76" height="22" rx="10" ry="10"></rect>
<text x="176" y="35">library</text>
</g>
<path d="M214 31h10"></path>
<path d="M224 31h10"></path>
<g>
<path d="M234 31h0"></path>
<path d="M270 31h0"></path>
<rect x="234" y="20" width="36" height="22"></rect>
<text x="252" y="35">ID</text>
</g>
<path d="M270 31h10"></path>
<path d="M280 31h10"></path>
<g>
<path d="M290 31h0"></path>
<path d="M318 31h0"></path>
<rect x="290" y="20" width="28" height="22" rx="10" ry="10"></rect>
<text x="304" y="35">;</text>
</g>
<path d="M318 31h10"></path>
</g>
<path d="M 328 31 h 20 m -10 -10 v 20 m 10 -20 v 20"></path>
</g>
</svg>
