<svg class="railroad-diagram" xmlns="http://www.w3.org/2000/svg" width="465" height="62" viewBox="0 0 465 62">
<style>
    svg.railroad-diagram {
        background-color: hsl(30,20%,95%);
    }
    svg.railroad-diagram path {
        stroke-width: 3;
        stroke: black;
        fill: rgba(0,0,0,0);
    }
    svg.railroad-diagram text {
        font: bold 14px monospace;
        text-anchor: middle;
    }
    svg.railroad-diagram text.label {
        text-anchor: start;
    }
    svg.railroad-diagram text.comment {
        font: italic 12px monospace;
    }
    svg.railroad-diagram rect {
        stroke-width: 3;
        stroke: black;
        fill: hsl(120,100%,90%);
    }
</style>
<g transform="translate(.5 .5)">
<path d="M 20 21 v 20 m 10 -20 v 20 m -10 -10 h 20.5"></path>
<g>
<path d="M40 31h0"></path>
<path d="M424 31h0"></path>
<path d="M40 31h10"></path>
<g>
<path d="M50 31h0"></path>
<path d="M94 31h0"></path>
<rect x="50" y="20" width="44" height="22" rx="10" ry="10"></rect>
<text x="72" y="35">var</text>
</g>
<path d="M94 31h10"></path>
<path d="M104 31h10"></path>
<g>
<path d="M114 31h0"></path>
<path d="M150 31h0"></path>
<rect x="114" y="20" width="36" height="22"></rect>
<text x="132" y="35">ID</text>
</g>
<path d="M150 31h10"></path>
<path d="M160 31h10"></path>
<g>
<path d="M170 31h0"></path>
<path d="M198 31h0"></path>
<rect x="170" y="20" width="28" height="22" rx="10" ry="10"></rect>
<text x="184" y="35">:</text>
</g>
<path d="M198 31h10"></path>
<path d="M208 31h10"></path>
<g>
<path d="M218 31h0"></path>
<path d="M294 31h0"></path>
<rect x="218" y="20" width="76" height="22"></rect>
<text x="256" y="35">TypeRef</text>
</g>
<path d="M294 31h10"></path>
<path d="M304 31h10"></path>
<g>
<path d="M314 31h0"></path>
<path d="M342 31h0"></path>
<rect x="314" y="20" width="28" height="22" rx="10" ry="10"></rect>
<text x="328" y="35">=</text>
</g>
<path d="M342 31h10"></path>
<path d="M352 31h10"></path>
<g>
<path d="M362 31h0"></path>
<path d="M414 31h0"></path>
<rect x="362" y="20" width="52" height="22"></rect>
<text x="388" y="35">Expr</text>
</g>
<path d="M414 31h10"></path>
</g>
<path d="M 424 31 h 20 m -10 -10 v 20 m 10 -20 v 20"></path>
</g>
</svg>
