<svg class="railroad-diagram" xmlns="http://www.w3.org/2000/svg" width="241" height="62" viewBox="0 0 241 62">
<style>
    svg.railroad-diagram {
        background-color: hsl(30,20%,95%);
    }
    svg.railroad-diagram path {
        stroke-width: 3;
        stroke: black;
        fill: rgba(0,0,0,0);
    }
    svg.railroad-diagram text {
        font: bold 14px monospace;
        text-anchor: middle;
    }
    svg.railroad-diagram text.label {
        text-anchor: start;
    }
    svg.railroad-diagram text.comment {
        font: italic 12px monospace;
    }
    svg.railroad-diagram rect {
        stroke-width: 3;
        stroke: black;
        fill: hsl(120,100%,90%);
    }
</style>
<g transform="translate(.5 .5)">
<path d="M 20 21 v 20 m 10 -20 v 20 m -10 -10 h 20.5"></path>
<g>
<path d="M40 31h0"></path>
<path d="M200 31h0"></path>
<path d="M40 31h10"></path>
<g>
<path d="M50 31h0"></path>
<path d="M86 31h0"></path>
<rect x="50" y="20" width="36" height="22"></rect>
<text x="68" y="35">ID</text>
</g>
<path d="M86 31h10"></path>
<path d="M96 31h10"></path>
<g>
<path d="M106 31h0"></path>
<path d="M134 31h0"></path>
<rect x="106" y="20" width="28" height="22" rx="10" ry="10"></rect>
<text x="120" y="35">:</text>
</g>
<path d="M134 31h10"></path>
<path d="M144 31h10"></path>
<g>
<path d="M154 31h0"></path>
<path d="M190 31h0"></path>
<rect x="154" y="20" width="36" height="22"></rect>
<text x="172" y="35">ID</text>
</g>
<path d="M190 31h10"></path>
</g>
<path d="M 200 31 h 20 m -10 -10 v 20 m 10 -20 v 20"></path>
</g>
</svg>
