<svg class="railroad-diagram" xmlns="http://www.w3.org/2000/svg" width="401" height="110" viewBox="0 0 401 110">
<style>
    svg.railroad-diagram {
        background-color: hsl(30,20%,95%);
    }
    svg.railroad-diagram path {
        stroke-width: 3;
        stroke: black;
        fill: rgba(0,0,0,0);
    }
    svg.railroad-diagram text {
        font: bold 14px monospace;
        text-anchor: middle;
    }
    svg.railroad-diagram text.label {
        text-anchor: start;
    }
    svg.railroad-diagram text.comment {
        font: italic 12px monospace;
    }
    svg.railroad-diagram rect {
        stroke-width: 3;
        stroke: black;
        fill: hsl(120,100%,90%);
    }
</style>
<g transform="translate(.5 .5)">
<path d="M 20 31 v 20 m 10 -20 v 20 m -10 -10 h 20.5"></path>
<g>
<path d="M40 41h0"></path>
<path d="M360 41h0"></path>
<path d="M40 41h10"></path>
<g>
<path d="M50 41h0"></path>
<path d="M126 41h0"></path>
<rect x="50" y="30" width="76" height="22"></rect>
<text x="88" y="45">Primary</text>
</g>
<path d="M126 41h10"></path>
<g>
<path d="M136 41h0"></path>
<path d="M360 41h0"></path>
<path d="M136 41a10 10 0 0 0 10 -10v0a10 10 0 0 1 10 -10"></path>
<g>
<path d="M156 21h184"></path>
</g>
<path d="M340 21a10 10 0 0 1 10 10v0a10 10 0 0 0 10 10"></path>
<path d="M136 41h20"></path>
<g>
<path d="M156 41h0"></path>
<path d="M340 41h0"></path>
<path d="M156 41h10"></path>
<g>
<path d="M166 41h0"></path>
<path d="M330 41h0"></path>
<g>
<path d="M166 41h0"></path>
<path d="M330 41h0"></path>
<g>
<path d="M166 41h0"></path>
<path d="M234 41h0"></path>
<path d="M166 41h20"></path>
<g>
<path d="M186 41h0"></path>
<path d="M214 41h0"></path>
<rect x="186" y="30" width="28" height="22" rx="10" ry="10"></rect>
<text x="200" y="45">&#42;</text>
</g>
<path d="M214 41h20"></path>
<path d="M166 41a10 10 0 0 1 10 10v10a10 10 0 0 0 10 10"></path>
<g>
<path d="M186 71h0"></path>
<path d="M214 71h0"></path>
<rect x="186" y="60" width="28" height="22" rx="10" ry="10"></rect>
<text x="200" y="75">/</text>
</g>
<path d="M214 71a10 10 0 0 0 10 -10v-10a10 10 0 0 1 10 -10"></path>
</g>
<path d="M234 41h10"></path>
<g>
<path d="M244 41h0"></path>
<path d="M320 41h0"></path>
<rect x="244" y="30" width="76" height="22"></rect>
<text x="282" y="45">Primary</text>
</g>
<path d="M320 41h10"></path>
</g>
</g>
<path d="M330 41h10"></path>
<path d="M166 41a10 10 0 0 0 -10 10v29a10 10 0 0 0 10 10"></path>
<g>
<path d="M166 90h164"></path>
</g>
<path d="M330 90a10 10 0 0 0 10 -10v-29a10 10 0 0 0 -10 -10"></path>
</g>
<path d="M340 41h20"></path>
</g>
</g>
<path d="M 360 41 h 20 m -10 -10 v 20 m 10 -20 v 20"></path>
</g>
</svg>
