<svg class="railroad-diagram" xmlns="http://www.w3.org/2000/svg" width="793" height="62" viewBox="0 0 793 62">
<style>
    svg.railroad-diagram {
        background-color: hsl(30,20%,95%);
    }
    svg.railroad-diagram path {
        stroke-width: 3;
        stroke: black;
        fill: rgba(0,0,0,0);
    }
    svg.railroad-diagram text {
        font: bold 14px monospace;
        text-anchor: middle;
    }
    svg.railroad-diagram text.label {
        text-anchor: start;
    }
    svg.railroad-diagram text.comment {
        font: italic 12px monospace;
    }
    svg.railroad-diagram rect {
        stroke-width: 3;
        stroke: black;
        fill: hsl(120,100%,90%);
    }
</style>
<g transform="translate(.5 .5)">
<path d="M 20 21 v 20 m 10 -20 v 20 m -10 -10 h 20.5"></path>
<g>
<path d="M40 31h0"></path>
<path d="M752 31h0"></path>
<path d="M40 31h10"></path>
<g>
<path d="M50 31h0"></path>
<path d="M126 31h0"></path>
<rect x="50" y="20" width="76" height="22" rx="10" ry="10"></rect>
<text x="88" y="35">network</text>
</g>
<path d="M126 31h10"></path>
<path d="M136 31h10"></path>
<g>
<path d="M146 31h0"></path>
<path d="M174 31h0"></path>
<rect x="146" y="20" width="28" height="22" rx="10" ry="10"></rect>
<text x="160" y="35">{</text>
</g>
<path d="M174 31h10"></path>
<path d="M184 31h10"></path>
<g>
<path d="M194 31h0"></path>
<path d="M286 31h0"></path>
<rect x="194" y="20" width="92" height="22" rx="10" ry="10"></rect>
<text x="240" y="35">hostname:</text>
</g>
<path d="M286 31h10"></path>
<path d="M296 31h10"></path>
<g>
<path d="M306 31h0"></path>
<path d="M430 31h0"></path>
<rect x="306" y="20" width="124" height="22"></rect>
<text x="368" y="35">StringLiteral</text>
</g>
<path d="M430 31h10"></path>
<path d="M440 31h10"></path>
<g>
<path d="M450 31h0"></path>
<path d="M550 31h0"></path>
<rect x="450" y="20" width="100" height="22" rx="10" ry="10"></rect>
<text x="500" y="35">ipAddress:</text>
</g>
<path d="M550 31h10"></path>
<path d="M560 31h10"></path>
<g>
<path d="M570 31h0"></path>
<path d="M694 31h0"></path>
<rect x="570" y="20" width="124" height="22"></rect>
<text x="632" y="35">StringLiteral</text>
</g>
<path d="M694 31h10"></path>
<path d="M704 31h10"></path>
<g>
<path d="M714 31h0"></path>
<path d="M742 31h0"></path>
<rect x="714" y="20" width="28" height="22" rx="10" ry="10"></rect>
<text x="728" y="35">}</text>
</g>
<path d="M742 31h10"></path>
</g>
<path d="M 752 31 h 20 m -10 -10 v 20 m 10 -20 v 20"></path>
</g>
</svg>
