<svg class="railroad-diagram" xmlns="http://www.w3.org/2000/svg" width="457" height="62" viewBox="0 0 457 62">
<style>
    svg.railroad-diagram {
        background-color: hsl(30,20%,95%);
    }
    svg.railroad-diagram path {
        stroke-width: 3;
        stroke: black;
        fill: rgba(0,0,0,0);
    }
    svg.railroad-diagram text {
        font: bold 14px monospace;
        text-anchor: middle;
    }
    svg.railroad-diagram text.label {
        text-anchor: start;
    }
    svg.railroad-diagram text.comment {
        font: italic 12px monospace;
    }
    svg.railroad-diagram rect {
        stroke-width: 3;
        stroke: black;
        fill: hsl(120,100%,90%);
    }
</style>
<g transform="translate(.5 .5)">
<path d="M 20 21 v 20 m 10 -20 v 20 m -10 -10 h 20.5"></path>
<g>
<path d="M40 31h0"></path>
<path d="M416 31h0"></path>
<path d="M40 31h10"></path>
<g>
<path d="M50 31h0"></path>
<path d="M150 31h0"></path>
<rect x="50" y="20" width="100" height="22" rx="10" ry="10"></rect>
<text x="100" y="35">on&#95;falling</text>
</g>
<path d="M150 31h10"></path>
<path d="M160 31h10"></path>
<g>
<path d="M170 31h0"></path>
<path d="M326 31h0"></path>
<rect x="170" y="20" width="156" height="22"></rect>
<text x="248" y="35">EdgeStatementCore</text>
</g>
<path d="M326 31h10"></path>
<path d="M336 31h10"></path>
<g>
<path d="M346 31h0"></path>
<path d="M406 31h0"></path>
<rect x="346" y="20" width="60" height="22"></rect>
<text x="376" y="35">Block</text>
</g>
<path d="M406 31h10"></path>
</g>
<path d="M 416 31 h 20 m -10 -10 v 20 m 10 -20 v 20"></path>
</g>
</svg>
