<svg class="railroad-diagram" xmlns="http://www.w3.org/2000/svg" width="389" height="81" viewBox="0 0 389 81">
<style>
    svg.railroad-diagram {
        background-color: hsl(30,20%,95%);
    }
    svg.railroad-diagram path {
        stroke-width: 3;
        stroke: black;
        fill: rgba(0,0,0,0);
    }
    svg.railroad-diagram text {
        font: bold 14px monospace;
        text-anchor: middle;
    }
    svg.railroad-diagram text.label {
        text-anchor: start;
    }
    svg.railroad-diagram text.comment {
        font: italic 12px monospace;
    }
    svg.railroad-diagram rect {
        stroke-width: 3;
        stroke: black;
        fill: hsl(120,100%,90%);
    }
</style>
<g transform="translate(.5 .5)">
<path d="M 20 31 v 20 m 10 -20 v 20 m -10 -10 h 20.5"></path>
<g>
<path d="M40 41h0"></path>
<path d="M348 41h0"></path>
<path d="M40 41h10"></path>
<g>
<path d="M50 41h0"></path>
<path d="M126 41h0"></path>
<rect x="50" y="30" width="76" height="22"></rect>
<text x="88" y="45">AndExpr</text>
</g>
<path d="M126 41h10"></path>
<g>
<path d="M136 41h0"></path>
<path d="M348 41h0"></path>
<path d="M136 41a10 10 0 0 0 10 -10v0a10 10 0 0 1 10 -10"></path>
<g>
<path d="M156 21h172"></path>
</g>
<path d="M328 21a10 10 0 0 1 10 10v0a10 10 0 0 0 10 10"></path>
<path d="M136 41h20"></path>
<g>
<path d="M156 41h0"></path>
<path d="M328 41h0"></path>
<path d="M156 41h10"></path>
<g>
<path d="M166 41h0"></path>
<path d="M318 41h0"></path>
<g>
<path d="M166 41h0"></path>
<path d="M318 41h0"></path>
<path d="M166 41h10"></path>
<g>
<path d="M176 41h0"></path>
<path d="M212 41h0"></path>
<rect x="176" y="30" width="36" height="22" rx="10" ry="10"></rect>
<text x="194" y="45">||</text>
</g>
<path d="M212 41h10"></path>
<path d="M222 41h10"></path>
<g>
<path d="M232 41h0"></path>
<path d="M308 41h0"></path>
<rect x="232" y="30" width="76" height="22"></rect>
<text x="270" y="45">AndExpr</text>
</g>
<path d="M308 41h10"></path>
</g>
</g>
<path d="M318 41h10"></path>
<path d="M166 41a10 10 0 0 0 -10 10v0a10 10 0 0 0 10 10"></path>
<g>
<path d="M166 61h152"></path>
</g>
<path d="M318 61a10 10 0 0 0 10 -10v0a10 10 0 0 0 -10 -10"></path>
</g>
<path d="M328 41h20"></path>
</g>
</g>
<path d="M 348 41 h 20 m -10 -10 v 20 m 10 -20 v 20"></path>
</g>
</svg>
