<svg class="railroad-diagram" xmlns="http://www.w3.org/2000/svg" width="249" height="62" viewBox="0 0 249 62">
<style>
    svg.railroad-diagram {
        background-color: hsl(30,20%,95%);
    }
    svg.railroad-diagram path {
        stroke-width: 3;
        stroke: black;
        fill: rgba(0,0,0,0);
    }
    svg.railroad-diagram text {
        font: bold 14px monospace;
        text-anchor: middle;
    }
    svg.railroad-diagram text.label {
        text-anchor: start;
    }
    svg.railroad-diagram text.comment {
        font: italic 12px monospace;
    }
    svg.railroad-diagram rect {
        stroke-width: 3;
        stroke: black;
        fill: hsl(120,100%,90%);
    }
</style>
<g transform="translate(.5 .5)">
<path d="M 20 21 v 20 m 10 -20 v 20 m -10 -10 h 20.5"></path>
<g>
<path d="M40 31h0"></path>
<path d="M208 31h0"></path>
<path d="M40 31h10"></path>
<g>
<path d="M50 31h0"></path>
<path d="M78 31h0"></path>
<rect x="50" y="20" width="28" height="22" rx="10" ry="10"></rect>
<text x="64" y="35">(</text>
</g>
<path d="M78 31h10"></path>
<path d="M88 31h10"></path>
<g>
<path d="M98 31h0"></path>
<path d="M150 31h0"></path>
<rect x="98" y="20" width="52" height="22"></rect>
<text x="124" y="35">Expr</text>
</g>
<path d="M150 31h10"></path>
<path d="M160 31h10"></path>
<g>
<path d="M170 31h0"></path>
<path d="M198 31h0"></path>
<rect x="170" y="20" width="28" height="22" rx="10" ry="10"></rect>
<text x="184" y="35">)</text>
</g>
<path d="M198 31h10"></path>
</g>
<path d="M 208 31 h 20 m -10 -10 v 20 m 10 -20 v 20"></path>
</g>
</svg>
