<svg class="railroad-diagram" xmlns="http://www.w3.org/2000/svg" width="913" height="62" viewBox="0 0 913 62">
<style>
    svg.railroad-diagram {
        background-color: hsl(30,20%,95%);
    }
    svg.railroad-diagram path {
        stroke-width: 3;
        stroke: black;
        fill: rgba(0,0,0,0);
    }
    svg.railroad-diagram text {
        font: bold 14px monospace;
        text-anchor: middle;
    }
    svg.railroad-diagram text.label {
        text-anchor: start;
    }
    svg.railroad-diagram text.comment {
        font: italic 12px monospace;
    }
    svg.railroad-diagram rect {
        stroke-width: 3;
        stroke: black;
        fill: hsl(120,100%,90%);
    }
</style>
<g transform="translate(.5 .5)">
<path d="M 20 21 v 20 m 10 -20 v 20 m -10 -10 h 20.5"></path>
<g>
<path d="M40 31h0"></path>
<path d="M872 31h0"></path>
<path d="M40 31h10"></path>
<g>
<path d="M50 31h0"></path>
<path d="M142 31h0"></path>
<rect x="50" y="20" width="92" height="22" rx="10" ry="10"></rect>
<text x="96" y="35">portgroup</text>
</g>
<path d="M142 31h10"></path>
<path d="M152 31h10"></path>
<g>
<path d="M162 31h0"></path>
<path d="M198 31h0"></path>
<rect x="162" y="20" width="36" height="22"></rect>
<text x="180" y="35">ID</text>
</g>
<path d="M198 31h10"></path>
<path d="M208 31h10"></path>
<g>
<path d="M218 31h0"></path>
<path d="M246 31h0"></path>
<rect x="218" y="20" width="28" height="22" rx="10" ry="10"></rect>
<text x="232" y="35">{</text>
</g>
<path d="M246 31h10"></path>
<path d="M256 31h10"></path>
<g>
<path d="M266 31h0"></path>
<path d="M342 31h0"></path>
<rect x="266" y="20" width="76" height="22" rx="10" ry="10"></rect>
<text x="304" y="35">module:</text>
</g>
<path d="M342 31h10"></path>
<path d="M352 31h10"></path>
<g>
<path d="M362 31h0"></path>
<path d="M398 31h0"></path>
<rect x="362" y="20" width="36" height="22"></rect>
<text x="380" y="35">ID</text>
</g>
<path d="M398 31h10"></path>
<path d="M408 31h10"></path>
<g>
<path d="M418 31h0"></path>
<path d="M494 31h0"></path>
<rect x="418" y="20" width="76" height="22" rx="10" ry="10"></rect>
<text x="456" y="35">ioType:</text>
</g>
<path d="M494 31h10"></path>
<path d="M504 31h10"></path>
<g>
<path d="M514 31h0"></path>
<path d="M582 31h0"></path>
<rect x="514" y="20" width="68" height="22"></rect>
<text x="548" y="35">IOType</text>
</g>
<path d="M582 31h10"></path>
<path d="M592 31h10"></path>
<g>
<path d="M602 31h0"></path>
<path d="M694 31h0"></path>
<rect x="602" y="20" width="92" height="22" rx="10" ry="10"></rect>
<text x="648" y="35">channels:</text>
</g>
<path d="M694 31h10"></path>
<path d="M704 31h10"></path>
<g>
<path d="M714 31h0"></path>
<path d="M814 31h0"></path>
<rect x="714" y="20" width="100" height="22"></rect>
<text x="764" y="35">IntLiteral</text>
</g>
<path d="M814 31h10"></path>
<path d="M824 31h10"></path>
<g>
<path d="M834 31h0"></path>
<path d="M862 31h0"></path>
<rect x="834" y="20" width="28" height="22" rx="10" ry="10"></rect>
<text x="848" y="35">}</text>
</g>
<path d="M862 31h10"></path>
</g>
<path d="M 872 31 h 20 m -10 -10 v 20 m 10 -20 v 20"></path>
</g>
</svg>
