<svg class="railroad-diagram" xmlns="http://www.w3.org/2000/svg" width="253" height="392" viewBox="0 0 253 392">
<style>
    svg.railroad-diagram {
        background-color: hsl(30,20%,95%);
    }
    svg.railroad-diagram path {
        stroke-width: 3;
        stroke: black;
        fill: rgba(0,0,0,0);
    }
    svg.railroad-diagram text {
        font: bold 14px monospace;
        text-anchor: middle;
    }
    svg.railroad-diagram text.label {
        text-anchor: start;
    }
    svg.railroad-diagram text.comment {
        font: italic 12px monospace;
    }
    svg.railroad-diagram rect {
        stroke-width: 3;
        stroke: black;
        fill: hsl(120,100%,90%);
    }
</style>
<g transform="translate(.5 .5)">
<path d="M 20 21 v 20 m 10 -20 v 20 m -10 -10 h 20.5"></path>
<g>
<path d="M40 31h0"></path>
<path d="M212 31h0"></path>
<path d="M40 31h20"></path>
<g>
<path d="M60 31h44"></path>
<path d="M148 31h44"></path>
<rect x="104" y="20" width="44" height="22" rx="10" ry="10"></rect>
<text x="126" y="35">now</text>
</g>
<path d="M192 31h20"></path>
<path d="M40 31a10 10 0 0 1 10 10v10a10 10 0 0 0 10 10"></path>
<g>
<path d="M60 61h20"></path>
<path d="M172 61h20"></path>
<rect x="80" y="50" width="92" height="22"></rect>
<text x="126" y="65">ParenExpr</text>
</g>
<path d="M192 61a10 10 0 0 0 10 -10v-10a10 10 0 0 1 10 -10"></path>
<path d="M40 31a10 10 0 0 1 10 10v40a10 10 0 0 0 10 10"></path>
<g>
<path d="M60 91h28"></path>
<path d="M164 91h28"></path>
<rect x="88" y="80" width="76" height="22"></rect>
<text x="126" y="95">NegExpr</text>
</g>
<path d="M192 91a10 10 0 0 0 10 -10v-40a10 10 0 0 1 10 -10"></path>
<path d="M40 31a10 10 0 0 1 10 10v70a10 10 0 0 0 10 10"></path>
<g>
<path d="M60 121h28"></path>
<path d="M164 121h28"></path>
<rect x="88" y="110" width="76" height="22"></rect>
<text x="126" y="125">NotExpr</text>
</g>
<path d="M192 121a10 10 0 0 0 10 -10v-70a10 10 0 0 1 10 -10"></path>
<path d="M40 31a10 10 0 0 1 10 10v100a10 10 0 0 0 10 10"></path>
<g>
<path d="M60 151h44"></path>
<path d="M148 151h44"></path>
<rect x="104" y="140" width="44" height="22"></rect>
<text x="126" y="155">Ref</text>
</g>
<path d="M192 151a10 10 0 0 0 10 -10v-100a10 10 0 0 1 10 -10"></path>
<path d="M40 31a10 10 0 0 1 10 10v130a10 10 0 0 0 10 10"></path>
<g>
<path d="M60 181h4"></path>
<path d="M188 181h4"></path>
<rect x="64" y="170" width="124" height="22"></rect>
<text x="126" y="185">NumberLiteral</text>
</g>
<path d="M192 181a10 10 0 0 0 10 -10v-130a10 10 0 0 1 10 -10"></path>
<path d="M40 31a10 10 0 0 1 10 10v160a10 10 0 0 0 10 10"></path>
<g>
<path d="M60 211h0"></path>
<path d="M192 211h0"></path>
<rect x="60" y="200" width="132" height="22"></rect>
<text x="126" y="215">BooleanLiteral</text>
</g>
<path d="M192 211a10 10 0 0 0 10 -10v-160a10 10 0 0 1 10 -10"></path>
<path d="M40 31a10 10 0 0 1 10 10v190a10 10 0 0 0 10 10"></path>
<g>
<path d="M60 241h4"></path>
<path d="M188 241h4"></path>
<rect x="64" y="230" width="124" height="22"></rect>
<text x="126" y="245">StringLiteral</text>
</g>
<path d="M192 241a10 10 0 0 0 10 -10v-190a10 10 0 0 1 10 -10"></path>
<path d="M40 31a10 10 0 0 1 10 10v220a10 10 0 0 0 10 10"></path>
<g>
<path d="M60 271h16"></path>
<path d="M176 271h16"></path>
<rect x="76" y="260" width="100" height="22"></rect>
<text x="126" y="275">TodLiteral</text>
</g>
<path d="M192 271a10 10 0 0 0 10 -10v-220a10 10 0 0 1 10 -10"></path>
<path d="M40 31a10 10 0 0 1 10 10v250a10 10 0 0 0 10 10"></path>
<g>
<path d="M60 301h12"></path>
<path d="M180 301h12"></path>
<rect x="72" y="290" width="108" height="22"></rect>
<text x="126" y="305">TimeLiteral</text>
</g>
<path d="M192 301a10 10 0 0 0 10 -10v-250a10 10 0 0 1 10 -10"></path>
<path d="M40 31a10 10 0 0 1 10 10v280a10 10 0 0 0 10 10"></path>
<g>
<path d="M60 331h8"></path>
<path d="M184 331h8"></path>
<rect x="68" y="320" width="116" height="22"></rect>
<text x="126" y="335">ArrayLiteral</text>
</g>
<path d="M192 331a10 10 0 0 0 10 -10v-280a10 10 0 0 1 10 -10"></path>
<path d="M40 31a10 10 0 0 1 10 10v310a10 10 0 0 0 10 10"></path>
<g>
<path d="M60 361h4"></path>
<path d="M188 361h4"></path>
<rect x="64" y="350" width="124" height="22"></rect>
<text x="126" y="365">StructLiteral</text>
</g>
<path d="M192 361a10 10 0 0 0 10 -10v-310a10 10 0 0 1 10 -10"></path>
</g>
<path d="M 212 31 h 20 m -10 -10 v 20 m 10 -20 v 20"></path>
</g>
</svg>
