<svg class="railroad-diagram" xmlns="http://www.w3.org/2000/svg" width="405" height="110" viewBox="0 0 405 110">
<style>
    svg.railroad-diagram {
        background-color: hsl(30,20%,95%);
    }
    svg.railroad-diagram path {
        stroke-width: 3;
        stroke: black;
        fill: rgba(0,0,0,0);
    }
    svg.railroad-diagram text {
        font: bold 14px monospace;
        text-anchor: middle;
    }
    svg.railroad-diagram text.label {
        text-anchor: start;
    }
    svg.railroad-diagram text.comment {
        font: italic 12px monospace;
    }
    svg.railroad-diagram rect {
        stroke-width: 3;
        stroke: black;
        fill: hsl(120,100%,90%);
    }
</style>
<g transform="translate(.5 .5)">
<path d="M 20 31 v 20 m 10 -20 v 20 m -10 -10 h 20.5"></path>
<g>
<path d="M40 41h0"></path>
<path d="M364 41h0"></path>
<path d="M40 41h10"></path>
<g>
<path d="M50 41h0"></path>
<path d="M86 41h0"></path>
<rect x="50" y="30" width="36" height="22"></rect>
<text x="68" y="45">ID</text>
</g>
<path d="M86 41h10"></path>
<g>
<path d="M96 41h0"></path>
<path d="M364 41h0"></path>
<path d="M96 41a10 10 0 0 0 10 -10v0a10 10 0 0 1 10 -10"></path>
<g>
<path d="M116 21h228"></path>
</g>
<path d="M344 21a10 10 0 0 1 10 10v0a10 10 0 0 0 10 10"></path>
<path d="M96 41h20"></path>
<g>
<path d="M116 41h0"></path>
<path d="M344 41h0"></path>
<path d="M116 41h10"></path>
<g>
<path d="M126 41h0"></path>
<path d="M334 41h0"></path>
<g>
<path d="M126 41h0"></path>
<path d="M334 41h0"></path>
<path d="M126 41h20"></path>
<g>
<path d="M146 41h32"></path>
<path d="M282 41h32"></path>
<path d="M178 41h10"></path>
<g>
<path d="M188 41h0"></path>
<path d="M216 41h0"></path>
<rect x="188" y="30" width="28" height="22" rx="10" ry="10"></rect>
<text x="202" y="45">.</text>
</g>
<path d="M216 41h10"></path>
<path d="M226 41h10"></path>
<g>
<path d="M236 41h0"></path>
<path d="M272 41h0"></path>
<rect x="236" y="30" width="36" height="22"></rect>
<text x="254" y="45">ID</text>
</g>
<path d="M272 41h10"></path>
</g>
<path d="M314 41h20"></path>
<path d="M126 41a10 10 0 0 1 10 10v10a10 10 0 0 0 10 10"></path>
<g>
<path d="M146 71h0"></path>
<path d="M314 71h0"></path>
<path d="M146 71h10"></path>
<g>
<path d="M156 71h0"></path>
<path d="M184 71h0"></path>
<rect x="156" y="60" width="28" height="22" rx="10" ry="10"></rect>
<text x="170" y="75">&#91;</text>
</g>
<path d="M184 71h10"></path>
<path d="M194 71h10"></path>
<g>
<path d="M204 71h0"></path>
<path d="M256 71h0"></path>
<rect x="204" y="60" width="52" height="22"></rect>
<text x="230" y="75">Expr</text>
</g>
<path d="M256 71h10"></path>
<path d="M266 71h10"></path>
<g>
<path d="M276 71h0"></path>
<path d="M304 71h0"></path>
<rect x="276" y="60" width="28" height="22" rx="10" ry="10"></rect>
<text x="290" y="75">&#93;</text>
</g>
<path d="M304 71h10"></path>
</g>
<path d="M314 71a10 10 0 0 0 10 -10v-10a10 10 0 0 1 10 -10"></path>
</g>
</g>
<path d="M334 41h10"></path>
<path d="M126 41a10 10 0 0 0 -10 10v29a10 10 0 0 0 10 10"></path>
<g>
<path d="M126 90h208"></path>
</g>
<path d="M334 90a10 10 0 0 0 10 -10v-29a10 10 0 0 0 -10 -10"></path>
</g>
<path d="M344 41h20"></path>
</g>
</g>
<path d="M 364 41 h 20 m -10 -10 v 20 m 10 -20 v 20"></path>
</g>
</svg>
