<svg class="railroad-diagram" xmlns="http://www.w3.org/2000/svg" width="269" height="392" viewBox="0 0 269 392">
<style>
    svg.railroad-diagram {
        background-color: hsl(30,20%,95%);
    }
    svg.railroad-diagram path {
        stroke-width: 3;
        stroke: black;
        fill: rgba(0,0,0,0);
    }
    svg.railroad-diagram text {
        font: bold 14px monospace;
        text-anchor: middle;
    }
    svg.railroad-diagram text.label {
        text-anchor: start;
    }
    svg.railroad-diagram text.comment {
        font: italic 12px monospace;
    }
    svg.railroad-diagram rect {
        stroke-width: 3;
        stroke: black;
        fill: hsl(120,100%,90%);
    }
</style>
<g transform="translate(.5 .5)">
<path d="M 20 21 v 20 m 10 -20 v 20 m -10 -10 h 20.5"></path>
<g>
<path d="M40 31h0"></path>
<path d="M228 31h0"></path>
<path d="M40 31h20"></path>
<g>
<path d="M60 31h8"></path>
<path d="M200 31h8"></path>
<rect x="68" y="20" width="132" height="22"></rect>
<text x="134" y="35">AssignmentStmt</text>
</g>
<path d="M208 31h20"></path>
<path d="M40 31a10 10 0 0 1 10 10v10a10 10 0 0 0 10 10"></path>
<g>
<path d="M60 61h40"></path>
<path d="M168 61h40"></path>
<rect x="100" y="50" width="68" height="22"></rect>
<text x="134" y="65">IfStmt</text>
</g>
<path d="M208 61a10 10 0 0 0 10 -10v-10a10 10 0 0 1 10 -10"></path>
<path d="M40 31a10 10 0 0 1 10 10v40a10 10 0 0 0 10 10"></path>
<g>
<path d="M60 91h28"></path>
<path d="M180 91h28"></path>
<rect x="88" y="80" width="92" height="22"></rect>
<text x="134" y="95">WhileStmt</text>
</g>
<path d="M208 91a10 10 0 0 0 10 -10v-40a10 10 0 0 1 10 -10"></path>
<path d="M40 31a10 10 0 0 1 10 10v70a10 10 0 0 0 10 10"></path>
<g>
<path d="M60 121h36"></path>
<path d="M172 121h36"></path>
<rect x="96" y="110" width="76" height="22"></rect>
<text x="134" y="125">ForStmt</text>
</g>
<path d="M208 121a10 10 0 0 0 10 -10v-70a10 10 0 0 1 10 -10"></path>
<path d="M40 31a10 10 0 0 1 10 10v100a10 10 0 0 0 10 10"></path>
<g>
<path d="M60 151h24"></path>
<path d="M184 151h24"></path>
<rect x="84" y="140" width="100" height="22"></rect>
<text x="134" y="155">SwitchStmt</text>
</g>
<path d="M208 151a10 10 0 0 0 10 -10v-100a10 10 0 0 1 10 -10"></path>
<path d="M40 31a10 10 0 0 1 10 10v130a10 10 0 0 0 10 10"></path>
<g>
<path d="M60 181h8"></path>
<path d="M200 181h8"></path>
<rect x="68" y="170" width="132" height="22"></rect>
<text x="134" y="185">ExpressionStmt</text>
</g>
<path d="M208 181a10 10 0 0 0 10 -10v-130a10 10 0 0 1 10 -10"></path>
<path d="M40 31a10 10 0 0 1 10 10v160a10 10 0 0 0 10 10"></path>
<g>
<path d="M60 211h0"></path>
<path d="M208 211h0"></path>
<rect x="60" y="200" width="148" height="22"></rect>
<text x="134" y="215">LocalVarDeclStmt</text>
</g>
<path d="M208 211a10 10 0 0 0 10 -10v-160a10 10 0 0 1 10 -10"></path>
<path d="M40 31a10 10 0 0 1 10 10v190a10 10 0 0 0 10 10"></path>
<g>
<path d="M60 241h28"></path>
<path d="M180 241h28"></path>
<rect x="88" y="230" width="92" height="22"></rect>
<text x="134" y="245">AfterStmt</text>
</g>
<path d="M208 241a10 10 0 0 0 10 -10v-190a10 10 0 0 1 10 -10"></path>
<path d="M40 31a10 10 0 0 1 10 10v220a10 10 0 0 0 10 10"></path>
<g>
<path d="M60 271h32"></path>
<path d="M176 271h32"></path>
<rect x="92" y="260" width="84" height="22"></rect>
<text x="134" y="275">EdgeStmt</text>
</g>
<path d="M208 271a10 10 0 0 0 10 -10v-220a10 10 0 0 1 10 -10"></path>
<path d="M40 31a10 10 0 0 1 10 10v250a10 10 0 0 0 10 10"></path>
<g>
<path d="M60 301h36"></path>
<path d="M172 301h36"></path>
<rect x="96" y="290" width="76" height="22"></rect>
<text x="134" y="305">UseStmt</text>
</g>
<path d="M208 301a10 10 0 0 0 10 -10v-250a10 10 0 0 1 10 -10"></path>
<path d="M40 31a10 10 0 0 1 10 10v280a10 10 0 0 0 10 10"></path>
<g>
<path d="M60 331h16"></path>
<path d="M192 331h16"></path>
<rect x="76" y="320" width="116" height="22"></rect>
<text x="134" y="335">ContinueStmt</text>
</g>
<path d="M208 331a10 10 0 0 0 10 -10v-280a10 10 0 0 1 10 -10"></path>
<path d="M40 31a10 10 0 0 1 10 10v310a10 10 0 0 0 10 10"></path>
<g>
<path d="M60 361h28"></path>
<path d="M180 361h28"></path>
<rect x="88" y="350" width="92" height="22"></rect>
<text x="134" y="365">BreakStmt</text>
</g>
<path d="M208 361a10 10 0 0 0 10 -10v-310a10 10 0 0 1 10 -10"></path>
</g>
<path d="M 228 31 h 20 m -10 -10 v 20 m 10 -20 v 20"></path>
</g>
</svg>
