<svg class="railroad-diagram" xmlns="http://www.w3.org/2000/svg" width="749" height="81" viewBox="0 0 749 81">
<style>
    svg.railroad-diagram {
        background-color: hsl(30,20%,95%);
    }
    svg.railroad-diagram path {
        stroke-width: 3;
        stroke: black;
        fill: rgba(0,0,0,0);
    }
    svg.railroad-diagram text {
        font: bold 14px monospace;
        text-anchor: middle;
    }
    svg.railroad-diagram text.label {
        text-anchor: start;
    }
    svg.railroad-diagram text.comment {
        font: italic 12px monospace;
    }
    svg.railroad-diagram rect {
        stroke-width: 3;
        stroke: black;
        fill: hsl(120,100%,90%);
    }
</style>
<g transform="translate(.5 .5)">
<path d="M 20 31 v 20 m 10 -20 v 20 m -10 -10 h 20.5"></path>
<g>
<path d="M40 41h0"></path>
<path d="M708 41h0"></path>
<path d="M40 41h10"></path>
<g>
<path d="M50 41h0"></path>
<path d="M118 41h0"></path>
<rect x="50" y="30" width="68" height="22" rx="10" ry="10"></rect>
<text x="84" y="45">struct</text>
</g>
<path d="M118 41h10"></path>
<path d="M128 41h10"></path>
<g>
<path d="M138 41h0"></path>
<path d="M174 41h0"></path>
<rect x="138" y="30" width="36" height="22"></rect>
<text x="156" y="45">ID</text>
</g>
<path d="M174 41h10"></path>
<path d="M184 41h10"></path>
<g>
<path d="M194 41h0"></path>
<path d="M222 41h0"></path>
<rect x="194" y="30" width="28" height="22" rx="10" ry="10"></rect>
<text x="208" y="45">{</text>
</g>
<path d="M222 41h10"></path>
<path d="M232 41h10"></path>
<g>
<path d="M242 41h0"></path>
<path d="M382 41h0"></path>
<rect x="242" y="30" width="140" height="22"></rect>
<text x="312" y="45">StructFieldDecl</text>
</g>
<path d="M382 41h10"></path>
<g>
<path d="M392 41h0"></path>
<path d="M660 41h0"></path>
<path d="M392 41a10 10 0 0 0 10 -10v0a10 10 0 0 1 10 -10"></path>
<g>
<path d="M412 21h228"></path>
</g>
<path d="M640 21a10 10 0 0 1 10 10v0a10 10 0 0 0 10 10"></path>
<path d="M392 41h20"></path>
<g>
<path d="M412 41h0"></path>
<path d="M640 41h0"></path>
<path d="M412 41h10"></path>
<g>
<path d="M422 41h0"></path>
<path d="M630 41h0"></path>
<g>
<path d="M422 41h0"></path>
<path d="M630 41h0"></path>
<path d="M422 41h10"></path>
<g>
<path d="M432 41h0"></path>
<path d="M460 41h0"></path>
<rect x="432" y="30" width="28" height="22" rx="10" ry="10"></rect>
<text x="446" y="45">,</text>
</g>
<path d="M460 41h10"></path>
<path d="M470 41h10"></path>
<g>
<path d="M480 41h0"></path>
<path d="M620 41h0"></path>
<rect x="480" y="30" width="140" height="22"></rect>
<text x="550" y="45">StructFieldDecl</text>
</g>
<path d="M620 41h10"></path>
</g>
</g>
<path d="M630 41h10"></path>
<path d="M422 41a10 10 0 0 0 -10 10v0a10 10 0 0 0 10 10"></path>
<g>
<path d="M422 61h208"></path>
</g>
<path d="M630 61a10 10 0 0 0 10 -10v0a10 10 0 0 0 -10 -10"></path>
</g>
<path d="M640 41h20"></path>
</g>
<path d="M660 41h10"></path>
<g>
<path d="M670 41h0"></path>
<path d="M698 41h0"></path>
<rect x="670" y="30" width="28" height="22" rx="10" ry="10"></rect>
<text x="684" y="45">}</text>
</g>
<path d="M698 41h10"></path>
</g>
<path d="M 708 41 h 20 m -10 -10 v 20 m 10 -20 v 20"></path>
</g>
</svg>
