<svg class="railroad-diagram" xmlns="http://www.w3.org/2000/svg" width="777" height="81" viewBox="0 0 777 81">
<style>
    svg.railroad-diagram {
        background-color: hsl(30,20%,95%);
    }
    svg.railroad-diagram path {
        stroke-width: 3;
        stroke: black;
        fill: rgba(0,0,0,0);
    }
    svg.railroad-diagram text {
        font: bold 14px monospace;
        text-anchor: middle;
    }
    svg.railroad-diagram text.label {
        text-anchor: start;
    }
    svg.railroad-diagram text.comment {
        font: italic 12px monospace;
    }
    svg.railroad-diagram rect {
        stroke-width: 3;
        stroke: black;
        fill: hsl(120,100%,90%);
    }
</style>
<g transform="translate(.5 .5)">
<path d="M 20 31 v 20 m 10 -20 v 20 m -10 -10 h 20.5"></path>
<g>
<path d="M40 41h0"></path>
<path d="M736 41h0"></path>
<path d="M40 41h10"></path>
<g>
<path d="M50 41h0"></path>
<path d="M118 41h0"></path>
<rect x="50" y="30" width="68" height="22" rx="10" ry="10"></rect>
<text x="84" y="45">switch</text>
</g>
<path d="M118 41h10"></path>
<path d="M128 41h10"></path>
<g>
<path d="M138 41h0"></path>
<path d="M166 41h0"></path>
<rect x="138" y="30" width="28" height="22" rx="10" ry="10"></rect>
<text x="152" y="45">(</text>
</g>
<path d="M166 41h10"></path>
<path d="M176 41h10"></path>
<g>
<path d="M186 41h0"></path>
<path d="M238 41h0"></path>
<rect x="186" y="30" width="52" height="22"></rect>
<text x="212" y="45">Expr</text>
</g>
<path d="M238 41h10"></path>
<path d="M248 41h10"></path>
<g>
<path d="M258 41h0"></path>
<path d="M286 41h0"></path>
<rect x="258" y="30" width="28" height="22" rx="10" ry="10"></rect>
<text x="272" y="45">)</text>
</g>
<path d="M286 41h10"></path>
<path d="M296 41h10"></path>
<g>
<path d="M306 41h0"></path>
<path d="M334 41h0"></path>
<rect x="306" y="30" width="28" height="22" rx="10" ry="10"></rect>
<text x="320" y="45">{</text>
</g>
<path d="M334 41h10"></path>
<path d="M344 41h10"></path>
<g>
<path d="M354 41h0"></path>
<path d="M494 41h0"></path>
<path d="M354 41h10"></path>
<g>
<path d="M364 41h0"></path>
<path d="M484 41h0"></path>
<path d="M364 41h10"></path>
<g>
<path d="M374 41h0"></path>
<path d="M474 41h0"></path>
<rect x="374" y="30" width="100" height="22"></rect>
<text x="424" y="45">CaseOption</text>
</g>
<path d="M474 41h10"></path>
</g>
<path d="M484 41h10"></path>
<path d="M364 41a10 10 0 0 0 -10 10v0a10 10 0 0 0 10 10"></path>
<g>
<path d="M364 61h120"></path>
</g>
<path d="M484 61a10 10 0 0 0 10 -10v0a10 10 0 0 0 -10 -10"></path>
</g>
<path d="M494 41h10"></path>
<g>
<path d="M504 41h0"></path>
<path d="M688 41h0"></path>
<path d="M504 41a10 10 0 0 0 10 -10v0a10 10 0 0 1 10 -10"></path>
<g>
<path d="M524 21h144"></path>
</g>
<path d="M668 21a10 10 0 0 1 10 10v0a10 10 0 0 0 10 10"></path>
<path d="M504 41h20"></path>
<g>
<path d="M524 41h0"></path>
<path d="M668 41h0"></path>
<path d="M524 41h10"></path>
<g>
<path d="M534 41h0"></path>
<path d="M658 41h0"></path>
<rect x="534" y="30" width="124" height="22"></rect>
<text x="596" y="45">DefaultOption</text>
</g>
<path d="M658 41h10"></path>
</g>
<path d="M668 41h20"></path>
</g>
<path d="M688 41h10"></path>
<g>
<path d="M698 41h0"></path>
<path d="M726 41h0"></path>
<rect x="698" y="30" width="28" height="22" rx="10" ry="10"></rect>
<text x="712" y="45">}</text>
</g>
<path d="M726 41h10"></path>
</g>
<path d="M 736 41 h 20 m -10 -10 v 20 m 10 -20 v 20"></path>
</g>
</svg>
