<svg class="railroad-diagram" xmlns="http://www.w3.org/2000/svg" width="405" height="162" viewBox="0 0 405 162">
<style>
    svg.railroad-diagram {
        background-color: hsl(30,20%,95%);
    }
    svg.railroad-diagram path {
        stroke-width: 3;
        stroke: black;
        fill: rgba(0,0,0,0);
    }
    svg.railroad-diagram text {
        font: bold 14px monospace;
        text-anchor: middle;
    }
    svg.railroad-diagram text.label {
        text-anchor: start;
    }
    svg.railroad-diagram text.comment {
        font: italic 12px monospace;
    }
    svg.railroad-diagram rect {
        stroke-width: 3;
        stroke: black;
        fill: hsl(120,100%,90%);
    }
</style>
<g transform="translate(.5 .5)">
<path d="M 20 31 v 20 m 10 -20 v 20 m -10 -10 h 20.5"></path>
<g>
<path d="M40 41h0"></path>
<path d="M364 41h0"></path>
<g>
<path d="M40 41h0"></path>
<path d="M168 41h0"></path>
<path d="M40 41a10 10 0 0 0 10 -10v0a10 10 0 0 1 10 -10"></path>
<g>
<path d="M60 21h88"></path>
</g>
<path d="M148 21a10 10 0 0 1 10 10v0a10 10 0 0 0 10 10"></path>
<path d="M40 41h20"></path>
<g>
<path d="M60 41h0"></path>
<path d="M148 41h0"></path>
<path d="M60 41h10"></path>
<g>
<path d="M70 41h0"></path>
<path d="M138 41h0"></path>
<rect x="70" y="30" width="68" height="22" rx="10" ry="10"></rect>
<text x="104" y="45">extern</text>
</g>
<path d="M138 41h10"></path>
</g>
<path d="M148 41h20"></path>
</g>
<g>
<path d="M168 41h0"></path>
<path d="M364 41h0"></path>
<path d="M168 41h20"></path>
<g>
<path d="M188 41h36"></path>
<path d="M308 41h36"></path>
<rect x="224" y="30" width="84" height="22"></rect>
<text x="266" y="45">EnumDecl</text>
</g>
<path d="M344 41h20"></path>
<path d="M168 41a10 10 0 0 1 10 10v10a10 10 0 0 0 10 10"></path>
<g>
<path d="M188 71h28"></path>
<path d="M316 71h28"></path>
<rect x="216" y="60" width="100" height="22"></rect>
<text x="266" y="75">StructDecl</text>
</g>
<path d="M344 71a10 10 0 0 0 10 -10v-10a10 10 0 0 1 10 -10"></path>
<path d="M168 41a10 10 0 0 1 10 10v40a10 10 0 0 0 10 10"></path>
<g>
<path d="M188 101h0"></path>
<path d="M344 101h0"></path>
<rect x="188" y="90" width="156" height="22"></rect>
<text x="266" y="105">FunctionBlockDecl</text>
</g>
<path d="M344 101a10 10 0 0 0 10 -10v-40a10 10 0 0 1 10 -10"></path>
<path d="M168 41a10 10 0 0 1 10 10v70a10 10 0 0 0 10 10"></path>
<g>
<path d="M188 131h32"></path>
<path d="M312 131h32"></path>
<rect x="220" y="120" width="92" height="22"></rect>
<text x="266" y="135">TypeAlias</text>
</g>
<path d="M344 131a10 10 0 0 0 10 -10v-70a10 10 0 0 1 10 -10"></path>
</g>
</g>
<path d="M 364 41 h 20 m -10 -10 v 20 m 10 -20 v 20"></path>
</g>
</svg>
