<svg class="railroad-diagram" xmlns="http://www.w3.org/2000/svg" width="661" height="111" viewBox="0 0 661 111">
<style>
    svg.railroad-diagram {
        background-color: hsl(30,20%,95%);
    }
    svg.railroad-diagram path {
        stroke-width: 3;
        stroke: black;
        fill: rgba(0,0,0,0);
    }
    svg.railroad-diagram text {
        font: bold 14px monospace;
        text-anchor: middle;
    }
    svg.railroad-diagram text.label {
        text-anchor: start;
    }
    svg.railroad-diagram text.comment {
        font: italic 12px monospace;
    }
    svg.railroad-diagram rect {
        stroke-width: 3;
        stroke: black;
        fill: hsl(120,100%,90%);
    }
</style>
<g transform="translate(.5 .5)">
<path d="M 20 21 v 20 m 10 -20 v 20 m -10 -10 h 20.5"></path>
<g>
<path d="M40 31h0"></path>
<path d="M620 31h0"></path>
<path d="M40 31h20"></path>
<g>
<path d="M60 31h200"></path>
<path d="M400 31h200"></path>
<rect x="260" y="20" width="140" height="22"></rect>
<text x="330" y="35">SimpleUseResult</text>
</g>
<path d="M600 31h20"></path>
<path d="M40 31a10 10 0 0 1 10 10v20a10 10 0 0 0 10 10"></path>
<g>
<path d="M60 71h0"></path>
<path d="M600 71h0"></path>
<path d="M60 71h10"></path>
<g>
<path d="M70 71h0"></path>
<path d="M98 71h0"></path>
<rect x="70" y="60" width="28" height="22" rx="10" ry="10"></rect>
<text x="84" y="75">{</text>
</g>
<path d="M98 71h10"></path>
<path d="M108 71h10"></path>
<g>
<path d="M118 71h0"></path>
<path d="M266 71h0"></path>
<rect x="118" y="60" width="148" height="22"></rect>
<text x="192" y="75">MappingUseResult</text>
</g>
<path d="M266 71h10"></path>
<g>
<path d="M276 71h0"></path>
<path d="M552 71h0"></path>
<path d="M276 71a10 10 0 0 0 10 -10v0a10 10 0 0 1 10 -10"></path>
<g>
<path d="M296 51h236"></path>
</g>
<path d="M532 51a10 10 0 0 1 10 10v0a10 10 0 0 0 10 10"></path>
<path d="M276 71h20"></path>
<g>
<path d="M296 71h0"></path>
<path d="M532 71h0"></path>
<path d="M296 71h10"></path>
<g>
<path d="M306 71h0"></path>
<path d="M522 71h0"></path>
<g>
<path d="M306 71h0"></path>
<path d="M522 71h0"></path>
<path d="M306 71h10"></path>
<g>
<path d="M316 71h0"></path>
<path d="M344 71h0"></path>
<rect x="316" y="60" width="28" height="22" rx="10" ry="10"></rect>
<text x="330" y="75">,</text>
</g>
<path d="M344 71h10"></path>
<path d="M354 71h10"></path>
<g>
<path d="M364 71h0"></path>
<path d="M512 71h0"></path>
<rect x="364" y="60" width="148" height="22"></rect>
<text x="438" y="75">MappingUseResult</text>
</g>
<path d="M512 71h10"></path>
</g>
</g>
<path d="M522 71h10"></path>
<path d="M306 71a10 10 0 0 0 -10 10v0a10 10 0 0 0 10 10"></path>
<g>
<path d="M306 91h216"></path>
</g>
<path d="M522 91a10 10 0 0 0 10 -10v0a10 10 0 0 0 -10 -10"></path>
</g>
<path d="M532 71h20"></path>
</g>
<path d="M552 71h10"></path>
<g>
<path d="M562 71h0"></path>
<path d="M590 71h0"></path>
<rect x="562" y="60" width="28" height="22" rx="10" ry="10"></rect>
<text x="576" y="75">}</text>
</g>
<path d="M590 71h10"></path>
</g>
<path d="M600 71a10 10 0 0 0 10 -10v-20a10 10 0 0 1 10 -10"></path>
</g>
<path d="M 620 31 h 20 m -10 -10 v 20 m 10 -20 v 20"></path>
</g>
</svg>
