<svg class="railroad-diagram" xmlns="http://www.w3.org/2000/svg" width="893" height="81" viewBox="0 0 893 81">
<style>
    svg.railroad-diagram {
        background-color: hsl(30,20%,95%);
    }
    svg.railroad-diagram path {
        stroke-width: 3;
        stroke: black;
        fill: rgba(0,0,0,0);
    }
    svg.railroad-diagram text {
        font: bold 14px monospace;
        text-anchor: middle;
    }
    svg.railroad-diagram text.label {
        text-anchor: start;
    }
    svg.railroad-diagram text.comment {
        font: italic 12px monospace;
    }
    svg.railroad-diagram rect {
        stroke-width: 3;
        stroke: black;
        fill: hsl(120,100%,90%);
    }
</style>
<g transform="translate(.5 .5)">
<path d="M 20 31 v 20 m 10 -20 v 20 m -10 -10 h 20.5"></path>
<g>
<path d="M40 41h0"></path>
<path d="M852 41h0"></path>
<path d="M40 41h10"></path>
<g>
<path d="M50 41h0"></path>
<path d="M94 41h0"></path>
<rect x="50" y="30" width="44" height="22" rx="10" ry="10"></rect>
<text x="72" y="45">use</text>
</g>
<path d="M94 41h10"></path>
<path d="M104 41h10"></path>
<g>
<path d="M114 41h0"></path>
<path d="M150 41h0"></path>
<rect x="114" y="30" width="36" height="22"></rect>
<text x="132" y="45">ID</text>
</g>
<path d="M150 41h10"></path>
<path d="M160 41h10"></path>
<g>
<path d="M170 41h0"></path>
<path d="M198 41h0"></path>
<rect x="170" y="30" width="28" height="22" rx="10" ry="10"></rect>
<text x="184" y="45">(</text>
</g>
<path d="M198 41h10"></path>
<path d="M208 41h10"></path>
<g>
<path d="M218 41h0"></path>
<path d="M334 41h0"></path>
<rect x="218" y="30" width="116" height="22"></rect>
<text x="276" y="45">InputMapping</text>
</g>
<path d="M334 41h10"></path>
<g>
<path d="M344 41h0"></path>
<path d="M588 41h0"></path>
<path d="M344 41a10 10 0 0 0 10 -10v0a10 10 0 0 1 10 -10"></path>
<g>
<path d="M364 21h204"></path>
</g>
<path d="M568 21a10 10 0 0 1 10 10v0a10 10 0 0 0 10 10"></path>
<path d="M344 41h20"></path>
<g>
<path d="M364 41h0"></path>
<path d="M568 41h0"></path>
<path d="M364 41h10"></path>
<g>
<path d="M374 41h0"></path>
<path d="M558 41h0"></path>
<g>
<path d="M374 41h0"></path>
<path d="M558 41h0"></path>
<path d="M374 41h10"></path>
<g>
<path d="M384 41h0"></path>
<path d="M412 41h0"></path>
<rect x="384" y="30" width="28" height="22" rx="10" ry="10"></rect>
<text x="398" y="45">,</text>
</g>
<path d="M412 41h10"></path>
<path d="M422 41h10"></path>
<g>
<path d="M432 41h0"></path>
<path d="M548 41h0"></path>
<rect x="432" y="30" width="116" height="22"></rect>
<text x="490" y="45">InputMapping</text>
</g>
<path d="M548 41h10"></path>
</g>
</g>
<path d="M558 41h10"></path>
<path d="M374 41a10 10 0 0 0 -10 10v0a10 10 0 0 0 10 10"></path>
<g>
<path d="M374 61h184"></path>
</g>
<path d="M558 61a10 10 0 0 0 10 -10v0a10 10 0 0 0 -10 -10"></path>
</g>
<path d="M568 41h20"></path>
</g>
<path d="M588 41h10"></path>
<g>
<path d="M598 41h0"></path>
<path d="M626 41h0"></path>
<rect x="598" y="30" width="28" height="22" rx="10" ry="10"></rect>
<text x="612" y="45">)</text>
</g>
<path d="M626 41h10"></path>
<path d="M636 41h10"></path>
<g>
<path d="M646 41h0"></path>
<path d="M682 41h0"></path>
<rect x="646" y="30" width="36" height="22" rx="10" ry="10"></rect>
<text x="664" y="45">-></text>
</g>
<path d="M682 41h10"></path>
<path d="M692 41h10"></path>
<g>
<path d="M702 41h0"></path>
<path d="M794 41h0"></path>
<rect x="702" y="30" width="92" height="22"></rect>
<text x="748" y="45">UseOutput</text>
</g>
<path d="M794 41h10"></path>
<path d="M804 41h10"></path>
<g>
<path d="M814 41h0"></path>
<path d="M842 41h0"></path>
<rect x="814" y="30" width="28" height="22" rx="10" ry="10"></rect>
<text x="828" y="45">;</text>
</g>
<path d="M842 41h10"></path>
</g>
<path d="M 852 41 h 20 m -10 -10 v 20 m 10 -20 v 20"></path>
</g>
</svg>
