<svg class="railroad-diagram" xmlns="http://www.w3.org/2000/svg" width="489" height="72" viewBox="0 0 489 72">
<style>
    svg.railroad-diagram {
        background-color: hsl(30,20%,95%);
    }
    svg.railroad-diagram path {
        stroke-width: 3;
        stroke: black;
        fill: rgba(0,0,0,0);
    }
    svg.railroad-diagram text {
        font: bold 14px monospace;
        text-anchor: middle;
    }
    svg.railroad-diagram text.label {
        text-anchor: start;
    }
    svg.railroad-diagram text.comment {
        font: italic 12px monospace;
    }
    svg.railroad-diagram rect {
        stroke-width: 3;
        stroke: black;
        fill: hsl(120,100%,90%);
    }
</style>
<g transform="translate(.5 .5)">
<path d="M 20 31 v 20 m 10 -20 v 20 m -10 -10 h 20.5"></path>
<g>
<path d="M40 41h0"></path>
<path d="M448 41h0"></path>
<path d="M40 41h10"></path>
<g>
<path d="M50 41h0"></path>
<path d="M86 41h0"></path>
<rect x="50" y="30" width="36" height="22"></rect>
<text x="68" y="45">ID</text>
</g>
<path d="M86 41h10"></path>
<path d="M96 41h10"></path>
<g>
<path d="M106 41h0"></path>
<path d="M134 41h0"></path>
<rect x="106" y="30" width="28" height="22" rx="10" ry="10"></rect>
<text x="120" y="45">:</text>
</g>
<path d="M134 41h10"></path>
<path d="M144 41h10"></path>
<g>
<path d="M154 41h0"></path>
<path d="M230 41h0"></path>
<rect x="154" y="30" width="76" height="22"></rect>
<text x="192" y="45">TypeRef</text>
</g>
<path d="M230 41h10"></path>
<g>
<path d="M240 41h0"></path>
<path d="M400 41h0"></path>
<path d="M240 41a10 10 0 0 0 10 -10v0a10 10 0 0 1 10 -10"></path>
<g>
<path d="M260 21h120"></path>
</g>
<path d="M380 21a10 10 0 0 1 10 10v0a10 10 0 0 0 10 10"></path>
<path d="M240 41h20"></path>
<g>
<path d="M260 41h0"></path>
<path d="M380 41h0"></path>
<g>
<path d="M260 41h0"></path>
<path d="M380 41h0"></path>
<path d="M260 41h10"></path>
<g>
<path d="M270 41h0"></path>
<path d="M298 41h0"></path>
<rect x="270" y="30" width="28" height="22" rx="10" ry="10"></rect>
<text x="284" y="45">=</text>
</g>
<path d="M298 41h10"></path>
<path d="M308 41h10"></path>
<g>
<path d="M318 41h0"></path>
<path d="M370 41h0"></path>
<rect x="318" y="30" width="52" height="22"></rect>
<text x="344" y="45">Expr</text>
</g>
<path d="M370 41h10"></path>
</g>
</g>
<path d="M380 41h20"></path>
</g>
<path d="M400 41h10"></path>
<g>
<path d="M410 41h0"></path>
<path d="M438 41h0"></path>
<rect x="410" y="30" width="28" height="22" rx="10" ry="10"></rect>
<text x="424" y="45">;</text>
</g>
<path d="M438 41h10"></path>
</g>
<path d="M 448 41 h 20 m -10 -10 v 20 m 10 -20 v 20"></path>
</g>
</svg>
