<svg class="railroad-diagram" xmlns="http://www.w3.org/2000/svg" width="641" height="62" viewBox="0 0 641 62">
<style>
    svg.railroad-diagram {
        background-color: hsl(30,20%,95%);
    }
    svg.railroad-diagram path {
        stroke-width: 3;
        stroke: black;
        fill: rgba(0,0,0,0);
    }
    svg.railroad-diagram text {
        font: bold 14px monospace;
        text-anchor: middle;
    }
    svg.railroad-diagram text.label {
        text-anchor: start;
    }
    svg.railroad-diagram text.comment {
        font: italic 12px monospace;
    }
    svg.railroad-diagram rect {
        stroke-width: 3;
        stroke: black;
        fill: hsl(120,100%,90%);
    }
</style>
<g transform="translate(.5 .5)">
<path d="M 20 21 v 20 m 10 -20 v 20 m -10 -10 h 20.5"></path>
<g>
<path d="M40 31h0"></path>
<path d="M600 31h0"></path>
<path d="M40 31h10"></path>
<g>
<path d="M50 31h0"></path>
<path d="M126 31h0"></path>
<rect x="50" y="20" width="76" height="22" rx="10" ry="10"></rect>
<text x="88" y="35">channel</text>
</g>
<path d="M126 31h10"></path>
<path d="M136 31h10"></path>
<g>
<path d="M146 31h0"></path>
<path d="M182 31h0"></path>
<rect x="146" y="20" width="36" height="22"></rect>
<text x="164" y="35">ID</text>
</g>
<path d="M182 31h10"></path>
<path d="M192 31h10"></path>
<g>
<path d="M202 31h0"></path>
<path d="M230 31h0"></path>
<rect x="202" y="20" width="28" height="22" rx="10" ry="10"></rect>
<text x="216" y="35">:</text>
</g>
<path d="M230 31h10"></path>
<path d="M240 31h10"></path>
<g>
<path d="M250 31h0"></path>
<path d="M374 31h0"></path>
<rect x="250" y="20" width="124" height="22"></rect>
<text x="312" y="35">PrimitiveType</text>
</g>
<path d="M374 31h10"></path>
<path d="M384 31h10"></path>
<g>
<path d="M394 31h0"></path>
<path d="M446 31h0"></path>
<rect x="394" y="20" width="52" height="22" rx="10" ry="10"></rect>
<text x="420" y="35">link</text>
</g>
<path d="M446 31h10"></path>
<path d="M456 31h10"></path>
<g>
<path d="M466 31h0"></path>
<path d="M590 31h0"></path>
<rect x="466" y="20" width="124" height="22"></rect>
<text x="528" y="35">StringLiteral</text>
</g>
<path d="M590 31h10"></path>
</g>
<path d="M 600 31 h 20 m -10 -10 v 20 m 10 -20 v 20"></path>
</g>
</svg>
