<svg class="railroad-diagram" xmlns="http://www.w3.org/2000/svg" width="325" height="81" viewBox="0 0 325 81">
<style>
    svg.railroad-diagram {
        background-color: hsl(30,20%,95%);
    }
    svg.railroad-diagram path {
        stroke-width: 3;
        stroke: black;
        fill: rgba(0,0,0,0);
    }
    svg.railroad-diagram text {
        font: bold 14px monospace;
        text-anchor: middle;
    }
    svg.railroad-diagram text.label {
        text-anchor: start;
    }
    svg.railroad-diagram text.comment {
        font: italic 12px monospace;
    }
    svg.railroad-diagram rect {
        stroke-width: 3;
        stroke: black;
        fill: hsl(120,100%,90%);
    }
</style>
<g transform="translate(.5 .5)">
<path d="M 20 31 v 20 m 10 -20 v 20 m -10 -10 h 20.5"></path>
<g>
<path d="M40 41h0"></path>
<path d="M284 41h0"></path>
<path d="M40 41a10 10 0 0 0 10 -10v0a10 10 0 0 1 10 -10"></path>
<g>
<path d="M60 21h204"></path>
</g>
<path d="M264 21a10 10 0 0 1 10 10v0a10 10 0 0 0 10 10"></path>
<path d="M40 41h20"></path>
<g>
<path d="M60 41h0"></path>
<path d="M264 41h0"></path>
<path d="M60 41h10"></path>
<g>
<path d="M70 41h0"></path>
<path d="M254 41h0"></path>
<path d="M70 41h10"></path>
<g>
<path d="M80 41h0"></path>
<path d="M244 41h0"></path>
<rect x="80" y="30" width="164" height="22"></rect>
<text x="162" y="45">HardwareDefinition</text>
</g>
<path d="M244 41h10"></path>
</g>
<path d="M254 41h10"></path>
<path d="M70 41a10 10 0 0 0 -10 10v0a10 10 0 0 0 10 10"></path>
<g>
<path d="M70 61h184"></path>
</g>
<path d="M254 61a10 10 0 0 0 10 -10v0a10 10 0 0 0 -10 -10"></path>
</g>
<path d="M264 41h20"></path>
</g>
<path d="M 284 41 h 20 m -10 -10 v 20 m 10 -20 v 20"></path>
</g>
</svg>
