<svg class="railroad-diagram" xmlns="http://www.w3.org/2000/svg" width="189" height="212" viewBox="0 0 189 212">
<style>
    svg.railroad-diagram {
        background-color: hsl(30,20%,95%);
    }
    svg.railroad-diagram path {
        stroke-width: 3;
        stroke: black;
        fill: rgba(0,0,0,0);
    }
    svg.railroad-diagram text {
        font: bold 14px monospace;
        text-anchor: middle;
    }
    svg.railroad-diagram text.label {
        text-anchor: start;
    }
    svg.railroad-diagram text.comment {
        font: italic 12px monospace;
    }
    svg.railroad-diagram rect {
        stroke-width: 3;
        stroke: black;
        fill: hsl(120,100%,90%);
    }
</style>
<g transform="translate(.5 .5)">
<path d="M 20 21 v 20 m 10 -20 v 20 m -10 -10 h 20.5"></path>
<g>
<path d="M40 31h0"></path>
<path d="M148 31h0"></path>
<path d="M40 31h20"></path>
<g>
<path d="M60 31h8"></path>
<path d="M120 31h8"></path>
<rect x="68" y="20" width="52" height="22" rx="10" ry="10"></rect>
<text x="94" y="35">BOOL</text>
</g>
<path d="M128 31h20"></path>
<path d="M40 31a10 10 0 0 1 10 10v10a10 10 0 0 0 10 10"></path>
<g>
<path d="M60 61h12"></path>
<path d="M116 61h12"></path>
<rect x="72" y="50" width="44" height="22" rx="10" ry="10"></rect>
<text x="94" y="65">INT</text>
</g>
<path d="M128 61a10 10 0 0 0 10 -10v-10a10 10 0 0 1 10 -10"></path>
<path d="M40 31a10 10 0 0 1 10 10v40a10 10 0 0 0 10 10"></path>
<g>
<path d="M60 91h8"></path>
<path d="M120 91h8"></path>
<rect x="68" y="80" width="52" height="22" rx="10" ry="10"></rect>
<text x="94" y="95">REAL</text>
</g>
<path d="M128 91a10 10 0 0 0 10 -10v-40a10 10 0 0 1 10 -10"></path>
<path d="M40 31a10 10 0 0 1 10 10v70a10 10 0 0 0 10 10"></path>
<g>
<path d="M60 121h0"></path>
<path d="M128 121h0"></path>
<rect x="60" y="110" width="68" height="22" rx="10" ry="10"></rect>
<text x="94" y="125">STRING</text>
</g>
<path d="M128 121a10 10 0 0 0 10 -10v-70a10 10 0 0 1 10 -10"></path>
<path d="M40 31a10 10 0 0 1 10 10v100a10 10 0 0 0 10 10"></path>
<g>
<path d="M60 151h8"></path>
<path d="M120 151h8"></path>
<rect x="68" y="140" width="52" height="22" rx="10" ry="10"></rect>
<text x="94" y="155">TIME</text>
</g>
<path d="M128 151a10 10 0 0 0 10 -10v-100a10 10 0 0 1 10 -10"></path>
<path d="M40 31a10 10 0 0 1 10 10v130a10 10 0 0 0 10 10"></path>
<g>
<path d="M60 181h12"></path>
<path d="M116 181h12"></path>
<rect x="72" y="170" width="44" height="22" rx="10" ry="10"></rect>
<text x="94" y="185">TOD</text>
</g>
<path d="M128 181a10 10 0 0 0 10 -10v-130a10 10 0 0 1 10 -10"></path>
</g>
<path d="M 148 31 h 20 m -10 -10 v 20 m 10 -20 v 20"></path>
</g>
</svg>
